<?xml version="1.0" encoding="utf-8" standalone="no"?>
<!DOCTYPE svg PUBLIC "-//W3C//DTD SVG 1.1//EN"
  "http://www.w3.org/Graphics/SVG/1.1/DTD/svg11.dtd">
<svg height="144pt" version="1.1" viewBox="0 0 360 144" width="360pt" xmlns="http://www.w3.org/2000/svg" xmlns:xlink="http://www.w3.org/1999/xlink">
 <metadata>
  <rdf:RDF xmlns:cc="http://creativecommons.org/ns#" xmlns:dc="http://purl.org/dc/elements/1.1/" xmlns:rdf="http://www.w3.org/1999/02/22-rdf-syntax-ns#">
   <cc:Work>
    <dc:type rdf:resource="http://purl.org/dc/dcmitype/StillImage"/>
    <dc:date>2021-10-19T00:19:30.261847</dc:date>
    <dc:format>image/svg+xml</dc:format>
    <dc:creator>
     <cc:Agent>
      <dc:title>Matplotlib v3.4.2, https://matplotlib.org/</dc:title>
     </cc:Agent>
    </dc:creator>
   </cc:Work>
  </rdf:RDF>
 </metadata>
 <defs>
  <style type="text/css">*{stroke-linecap:butt;stroke-linejoin:round;}</style>
 </defs>
 <g id="figure_1">
  <g id="patch_1">
   <path d="M 0 144 
L 360 144 
L 360 0 
L 0 0 
z
" style="fill:#ffffff;"/>
  </g>
  <g id="axes_1">
   <g id="patch_2">
    <path d="M 14.3 116.12 
L 345.7 116.12 
L 345.7 14.3 
L 14.3 14.3 
z
" style="fill:#ffffff;"/>
   </g>
   <g id="matplotlib.axis_1">
    <g id="xtick_1">
     <g id="line2d_1">
      <path clip-path="url(#p10f4566c6c)" d="M 29.363636 116.12 
L 29.363636 14.3 
" style="fill:none;stroke:#b0b0b0;stroke-linecap:square;stroke-width:0.8;"/>
     </g>
     <g id="line2d_2">
      <defs>
       <path d="M 0 0 
L 0 3.5 
" id="m246a8adcb6" style="stroke:#000000;stroke-width:0.8;"/>
      </defs>
      <g>
       <use style="stroke:#000000;stroke-width:0.8;" x="29.363636" xlink:href="#m246a8adcb6" y="116.12"/>
      </g>
     </g>
     <g id="line2d_3">
      <defs>
       <path d="M 0 0 
L 0 -3.5 
" id="mc4e44f1ce2" style="stroke:#000000;stroke-width:0.8;"/>
      </defs>
      <g>
       <use style="stroke:#000000;stroke-width:0.8;" x="29.363636" xlink:href="#mc4e44f1ce2" y="14.3"/>
      </g>
     </g>
     <g id="text_1">
      <!-- 0.0 -->
      <g transform="translate(21.412074 130.718437)scale(0.1 -0.1)">
       <defs>
        <path d="M 2034 4250 
Q 1547 4250 1301 3770 
Q 1056 3291 1056 2328 
Q 1056 1369 1301 889 
Q 1547 409 2034 409 
Q 2525 409 2770 889 
Q 3016 1369 3016 2328 
Q 3016 3291 2770 3770 
Q 2525 4250 2034 4250 
z
M 2034 4750 
Q 2819 4750 3233 4129 
Q 3647 3509 3647 2328 
Q 3647 1150 3233 529 
Q 2819 -91 2034 -91 
Q 1250 -91 836 529 
Q 422 1150 422 2328 
Q 422 3509 836 4129 
Q 1250 4750 2034 4750 
z
" id="DejaVuSans-30" transform="scale(0.015625)"/>
        <path d="M 684 794 
L 1344 794 
L 1344 0 
L 684 0 
L 684 794 
z
" id="DejaVuSans-2e" transform="scale(0.015625)"/>
       </defs>
       <use xlink:href="#DejaVuSans-30"/>
       <use x="63.623047" xlink:href="#DejaVuSans-2e"/>
       <use x="95.410156" xlink:href="#DejaVuSans-30"/>
      </g>
     </g>
    </g>
    <g id="xtick_2">
     <g id="line2d_4">
      <path clip-path="url(#p10f4566c6c)" d="M 89.618182 116.12 
L 89.618182 14.3 
" style="fill:none;stroke:#b0b0b0;stroke-linecap:square;stroke-width:0.8;"/>
     </g>
     <g id="line2d_5">
      <g>
       <use style="stroke:#000000;stroke-width:0.8;" x="89.618182" xlink:href="#m246a8adcb6" y="116.12"/>
      </g>
     </g>
     <g id="line2d_6">
      <g>
       <use style="stroke:#000000;stroke-width:0.8;" x="89.618182" xlink:href="#mc4e44f1ce2" y="14.3"/>
      </g>
     </g>
     <g id="text_2">
      <!-- 0.2 -->
      <g transform="translate(81.666619 130.718437)scale(0.1 -0.1)">
       <defs>
        <path d="M 1228 531 
L 3431 531 
L 3431 0 
L 469 0 
L 469 531 
Q 828 903 1448 1529 
Q 2069 2156 2228 2338 
Q 2531 2678 2651 2914 
Q 2772 3150 2772 3378 
Q 2772 3750 2511 3984 
Q 2250 4219 1831 4219 
Q 1534 4219 1204 4116 
Q 875 4013 500 3803 
L 500 4441 
Q 881 4594 1212 4672 
Q 1544 4750 1819 4750 
Q 2544 4750 2975 4387 
Q 3406 4025 3406 3419 
Q 3406 3131 3298 2873 
Q 3191 2616 2906 2266 
Q 2828 2175 2409 1742 
Q 1991 1309 1228 531 
z
" id="DejaVuSans-32" transform="scale(0.015625)"/>
       </defs>
       <use xlink:href="#DejaVuSans-30"/>
       <use x="63.623047" xlink:href="#DejaVuSans-2e"/>
       <use x="95.410156" xlink:href="#DejaVuSans-32"/>
      </g>
     </g>
    </g>
    <g id="xtick_3">
     <g id="line2d_7">
      <path clip-path="url(#p10f4566c6c)" d="M 149.872727 116.12 
L 149.872727 14.3 
" style="fill:none;stroke:#b0b0b0;stroke-linecap:square;stroke-width:0.8;"/>
     </g>
     <g id="line2d_8">
      <g>
       <use style="stroke:#000000;stroke-width:0.8;" x="149.872727" xlink:href="#m246a8adcb6" y="116.12"/>
      </g>
     </g>
     <g id="line2d_9">
      <g>
       <use style="stroke:#000000;stroke-width:0.8;" x="149.872727" xlink:href="#mc4e44f1ce2" y="14.3"/>
      </g>
     </g>
     <g id="text_3">
      <!-- 0.4 -->
      <g transform="translate(141.921165 130.718437)scale(0.1 -0.1)">
       <defs>
        <path d="M 2419 4116 
L 825 1625 
L 2419 1625 
L 2419 4116 
z
M 2253 4666 
L 3047 4666 
L 3047 1625 
L 3713 1625 
L 3713 1100 
L 3047 1100 
L 3047 0 
L 2419 0 
L 2419 1100 
L 313 1100 
L 313 1709 
L 2253 4666 
z
" id="DejaVuSans-34" transform="scale(0.015625)"/>
       </defs>
       <use xlink:href="#DejaVuSans-30"/>
       <use x="63.623047" xlink:href="#DejaVuSans-2e"/>
       <use x="95.410156" xlink:href="#DejaVuSans-34"/>
      </g>
     </g>
    </g>
    <g id="xtick_4">
     <g id="line2d_10">
      <path clip-path="url(#p10f4566c6c)" d="M 210.127273 116.12 
L 210.127273 14.3 
" style="fill:none;stroke:#b0b0b0;stroke-linecap:square;stroke-width:0.8;"/>
     </g>
     <g id="line2d_11">
      <g>
       <use style="stroke:#000000;stroke-width:0.8;" x="210.127273" xlink:href="#m246a8adcb6" y="116.12"/>
      </g>
     </g>
     <g id="line2d_12">
      <g>
       <use style="stroke:#000000;stroke-width:0.8;" x="210.127273" xlink:href="#mc4e44f1ce2" y="14.3"/>
      </g>
     </g>
     <g id="text_4">
      <!-- 0.6 -->
      <g transform="translate(202.17571 130.718437)scale(0.1 -0.1)">
       <defs>
        <path d="M 2113 2584 
Q 1688 2584 1439 2293 
Q 1191 2003 1191 1497 
Q 1191 994 1439 701 
Q 1688 409 2113 409 
Q 2538 409 2786 701 
Q 3034 994 3034 1497 
Q 3034 2003 2786 2293 
Q 2538 2584 2113 2584 
z
M 3366 4563 
L 3366 3988 
Q 3128 4100 2886 4159 
Q 2644 4219 2406 4219 
Q 1781 4219 1451 3797 
Q 1122 3375 1075 2522 
Q 1259 2794 1537 2939 
Q 1816 3084 2150 3084 
Q 2853 3084 3261 2657 
Q 3669 2231 3669 1497 
Q 3669 778 3244 343 
Q 2819 -91 2113 -91 
Q 1303 -91 875 529 
Q 447 1150 447 2328 
Q 447 3434 972 4092 
Q 1497 4750 2381 4750 
Q 2619 4750 2861 4703 
Q 3103 4656 3366 4563 
z
" id="DejaVuSans-36" transform="scale(0.015625)"/>
       </defs>
       <use xlink:href="#DejaVuSans-30"/>
       <use x="63.623047" xlink:href="#DejaVuSans-2e"/>
       <use x="95.410156" xlink:href="#DejaVuSans-36"/>
      </g>
     </g>
    </g>
    <g id="xtick_5">
     <g id="line2d_13">
      <path clip-path="url(#p10f4566c6c)" d="M 270.381818 116.12 
L 270.381818 14.3 
" style="fill:none;stroke:#b0b0b0;stroke-linecap:square;stroke-width:0.8;"/>
     </g>
     <g id="line2d_14">
      <g>
       <use style="stroke:#000000;stroke-width:0.8;" x="270.381818" xlink:href="#m246a8adcb6" y="116.12"/>
      </g>
     </g>
     <g id="line2d_15">
      <g>
       <use style="stroke:#000000;stroke-width:0.8;" x="270.381818" xlink:href="#mc4e44f1ce2" y="14.3"/>
      </g>
     </g>
     <g id="text_5">
      <!-- 0.8 -->
      <g transform="translate(262.430256 130.718437)scale(0.1 -0.1)">
       <defs>
        <path d="M 2034 2216 
Q 1584 2216 1326 1975 
Q 1069 1734 1069 1313 
Q 1069 891 1326 650 
Q 1584 409 2034 409 
Q 2484 409 2743 651 
Q 3003 894 3003 1313 
Q 3003 1734 2745 1975 
Q 2488 2216 2034 2216 
z
M 1403 2484 
Q 997 2584 770 2862 
Q 544 3141 544 3541 
Q 544 4100 942 4425 
Q 1341 4750 2034 4750 
Q 2731 4750 3128 4425 
Q 3525 4100 3525 3541 
Q 3525 3141 3298 2862 
Q 3072 2584 2669 2484 
Q 3125 2378 3379 2068 
Q 3634 1759 3634 1313 
Q 3634 634 3220 271 
Q 2806 -91 2034 -91 
Q 1263 -91 848 271 
Q 434 634 434 1313 
Q 434 1759 690 2068 
Q 947 2378 1403 2484 
z
M 1172 3481 
Q 1172 3119 1398 2916 
Q 1625 2713 2034 2713 
Q 2441 2713 2670 2916 
Q 2900 3119 2900 3481 
Q 2900 3844 2670 4047 
Q 2441 4250 2034 4250 
Q 1625 4250 1398 4047 
Q 1172 3844 1172 3481 
z
" id="DejaVuSans-38" transform="scale(0.015625)"/>
       </defs>
       <use xlink:href="#DejaVuSans-30"/>
       <use x="63.623047" xlink:href="#DejaVuSans-2e"/>
       <use x="95.410156" xlink:href="#DejaVuSans-38"/>
      </g>
     </g>
    </g>
    <g id="xtick_6">
     <g id="line2d_16">
      <path clip-path="url(#p10f4566c6c)" d="M 330.636364 116.12 
L 330.636364 14.3 
" style="fill:none;stroke:#b0b0b0;stroke-linecap:square;stroke-width:0.8;"/>
     </g>
     <g id="line2d_17">
      <g>
       <use style="stroke:#000000;stroke-width:0.8;" x="330.636364" xlink:href="#m246a8adcb6" y="116.12"/>
      </g>
     </g>
     <g id="line2d_18">
      <g>
       <use style="stroke:#000000;stroke-width:0.8;" x="330.636364" xlink:href="#mc4e44f1ce2" y="14.3"/>
      </g>
     </g>
     <g id="text_6">
      <!-- 1.0 -->
      <g transform="translate(322.684801 130.718437)scale(0.1 -0.1)">
       <defs>
        <path d="M 794 531 
L 1825 531 
L 1825 4091 
L 703 3866 
L 703 4441 
L 1819 4666 
L 2450 4666 
L 2450 531 
L 3481 531 
L 3481 0 
L 794 0 
L 794 531 
z
" id="DejaVuSans-31" transform="scale(0.015625)"/>
       </defs>
       <use xlink:href="#DejaVuSans-31"/>
       <use x="63.623047" xlink:href="#DejaVuSans-2e"/>
       <use x="95.410156" xlink:href="#DejaVuSans-30"/>
      </g>
     </g>
    </g>
   </g>
   <g id="matplotlib.axis_2"/>
   <g id="line2d_19">
    <path clip-path="url(#p10f4566c6c)" d="M 29.363636 95.756 
L 35.389091 95.756 
" style="fill:none;stroke:#d99999;stroke-linecap:square;stroke-width:3;"/>
   </g>
   <g id="line2d_20">
    <path clip-path="url(#p10f4566c6c)" d="M 29.363636 99.8288 
L 29.363636 91.6832 
" style="fill:none;stroke:#000000;stroke-linecap:square;stroke-width:2;"/>
   </g>
   <g id="line2d_21">
    <path clip-path="url(#p10f4566c6c)" d="M 35.389091 99.8288 
L 35.389091 91.6832 
" style="fill:none;stroke:#000000;stroke-linecap:square;stroke-width:2;"/>
   </g>
   <g id="line2d_22">
    <path clip-path="url(#p10f4566c6c)" d="M 35.389091 95.756 
L 41.414545 95.756 
" style="fill:none;stroke:#d99999;stroke-linecap:square;stroke-width:3;"/>
   </g>
   <g id="line2d_23">
    <path clip-path="url(#p10f4566c6c)" d="M 35.389091 99.8288 
L 35.389091 91.6832 
" style="fill:none;stroke:#000000;stroke-linecap:square;stroke-width:2;"/>
   </g>
   <g id="line2d_24">
    <path clip-path="url(#p10f4566c6c)" d="M 41.414545 99.8288 
L 41.414545 91.6832 
" style="fill:none;stroke:#000000;stroke-linecap:square;stroke-width:2;"/>
   </g>
   <g id="line2d_25">
    <path clip-path="url(#p10f4566c6c)" d="M 41.414545 95.756 
L 47.44 95.756 
" style="fill:none;stroke:#d99999;stroke-linecap:square;stroke-width:3;"/>
   </g>
   <g id="line2d_26">
    <path clip-path="url(#p10f4566c6c)" d="M 41.414545 99.8288 
L 41.414545 91.6832 
" style="fill:none;stroke:#000000;stroke-linecap:square;stroke-width:2;"/>
   </g>
   <g id="line2d_27">
    <path clip-path="url(#p10f4566c6c)" d="M 47.44 99.8288 
L 47.44 91.6832 
" style="fill:none;stroke:#000000;stroke-linecap:square;stroke-width:2;"/>
   </g>
   <g id="line2d_28">
    <path clip-path="url(#p10f4566c6c)" d="M 47.44 95.756 
L 53.465455 95.756 
" style="fill:none;stroke:#d99999;stroke-linecap:square;stroke-width:3;"/>
   </g>
   <g id="line2d_29">
    <path clip-path="url(#p10f4566c6c)" d="M 47.44 99.8288 
L 47.44 91.6832 
" style="fill:none;stroke:#000000;stroke-linecap:square;stroke-width:2;"/>
   </g>
   <g id="line2d_30">
    <path clip-path="url(#p10f4566c6c)" d="M 53.465455 99.8288 
L 53.465455 91.6832 
" style="fill:none;stroke:#000000;stroke-linecap:square;stroke-width:2;"/>
   </g>
   <g id="line2d_31">
    <path clip-path="url(#p10f4566c6c)" d="M 53.465455 95.756 
L 59.490909 95.756 
" style="fill:none;stroke:#d99999;stroke-linecap:square;stroke-width:3;"/>
   </g>
   <g id="line2d_32">
    <path clip-path="url(#p10f4566c6c)" d="M 53.465455 99.8288 
L 53.465455 91.6832 
" style="fill:none;stroke:#000000;stroke-linecap:square;stroke-width:2;"/>
   </g>
   <g id="line2d_33">
    <path clip-path="url(#p10f4566c6c)" d="M 59.490909 99.8288 
L 59.490909 91.6832 
" style="fill:none;stroke:#000000;stroke-linecap:square;stroke-width:2;"/>
   </g>
   <g id="line2d_34">
    <path clip-path="url(#p10f4566c6c)" d="M 59.490909 95.756 
L 65.516364 95.756 
" style="fill:none;stroke:#d99999;stroke-linecap:square;stroke-width:3;"/>
   </g>
   <g id="line2d_35">
    <path clip-path="url(#p10f4566c6c)" d="M 59.490909 99.8288 
L 59.490909 91.6832 
" style="fill:none;stroke:#000000;stroke-linecap:square;stroke-width:2;"/>
   </g>
   <g id="line2d_36">
    <path clip-path="url(#p10f4566c6c)" d="M 65.516364 99.8288 
L 65.516364 91.6832 
" style="fill:none;stroke:#000000;stroke-linecap:square;stroke-width:2;"/>
   </g>
   <g id="line2d_37">
    <path clip-path="url(#p10f4566c6c)" d="M 65.516364 95.756 
L 71.541818 95.756 
" style="fill:none;stroke:#d99999;stroke-linecap:square;stroke-width:3;"/>
   </g>
   <g id="line2d_38">
    <path clip-path="url(#p10f4566c6c)" d="M 65.516364 99.8288 
L 65.516364 91.6832 
" style="fill:none;stroke:#000000;stroke-linecap:square;stroke-width:2;"/>
   </g>
   <g id="line2d_39">
    <path clip-path="url(#p10f4566c6c)" d="M 71.541818 99.8288 
L 71.541818 91.6832 
" style="fill:none;stroke:#000000;stroke-linecap:square;stroke-width:2;"/>
   </g>
   <g id="line2d_40">
    <path clip-path="url(#p10f4566c6c)" d="M 71.541818 95.756 
L 77.567273 95.756 
" style="fill:none;stroke:#d99999;stroke-linecap:square;stroke-width:3;"/>
   </g>
   <g id="line2d_41">
    <path clip-path="url(#p10f4566c6c)" d="M 71.541818 99.8288 
L 71.541818 91.6832 
" style="fill:none;stroke:#000000;stroke-linecap:square;stroke-width:2;"/>
   </g>
   <g id="line2d_42">
    <path clip-path="url(#p10f4566c6c)" d="M 77.567273 99.8288 
L 77.567273 91.6832 
" style="fill:none;stroke:#000000;stroke-linecap:square;stroke-width:2;"/>
   </g>
   <g id="line2d_43">
    <path clip-path="url(#p10f4566c6c)" d="M 77.567273 95.756 
L 83.592727 95.756 
" style="fill:none;stroke:#d99999;stroke-linecap:square;stroke-width:3;"/>
   </g>
   <g id="line2d_44">
    <path clip-path="url(#p10f4566c6c)" d="M 77.567273 99.8288 
L 77.567273 91.6832 
" style="fill:none;stroke:#000000;stroke-linecap:square;stroke-width:2;"/>
   </g>
   <g id="line2d_45">
    <path clip-path="url(#p10f4566c6c)" d="M 83.592727 99.8288 
L 83.592727 91.6832 
" style="fill:none;stroke:#000000;stroke-linecap:square;stroke-width:2;"/>
   </g>
   <g id="line2d_46">
    <path clip-path="url(#p10f4566c6c)" d="M 83.592727 95.756 
L 89.618182 95.756 
" style="fill:none;stroke:#d99999;stroke-linecap:square;stroke-width:3;"/>
   </g>
   <g id="line2d_47">
    <path clip-path="url(#p10f4566c6c)" d="M 83.592727 99.8288 
L 83.592727 91.6832 
" style="fill:none;stroke:#000000;stroke-linecap:square;stroke-width:2;"/>
   </g>
   <g id="line2d_48">
    <path clip-path="url(#p10f4566c6c)" d="M 89.618182 99.8288 
L 89.618182 91.6832 
" style="fill:none;stroke:#000000;stroke-linecap:square;stroke-width:2;"/>
   </g>
   <g id="line2d_49">
    <path clip-path="url(#p10f4566c6c)" d="M 89.618182 95.756 
L 95.643636 95.756 
" style="fill:none;stroke:#d99999;stroke-linecap:square;stroke-width:3;"/>
   </g>
   <g id="line2d_50">
    <path clip-path="url(#p10f4566c6c)" d="M 89.618182 99.8288 
L 89.618182 91.6832 
" style="fill:none;stroke:#000000;stroke-linecap:square;stroke-width:2;"/>
   </g>
   <g id="line2d_51">
    <path clip-path="url(#p10f4566c6c)" d="M 95.643636 99.8288 
L 95.643636 91.6832 
" style="fill:none;stroke:#000000;stroke-linecap:square;stroke-width:2;"/>
   </g>
   <g id="line2d_52">
    <path clip-path="url(#p10f4566c6c)" d="M 95.643636 95.756 
L 101.669091 95.756 
" style="fill:none;stroke:#d99999;stroke-linecap:square;stroke-width:3;"/>
   </g>
   <g id="line2d_53">
    <path clip-path="url(#p10f4566c6c)" d="M 95.643636 99.8288 
L 95.643636 91.6832 
" style="fill:none;stroke:#000000;stroke-linecap:square;stroke-width:2;"/>
   </g>
   <g id="line2d_54">
    <path clip-path="url(#p10f4566c6c)" d="M 101.669091 99.8288 
L 101.669091 91.6832 
" style="fill:none;stroke:#000000;stroke-linecap:square;stroke-width:2;"/>
   </g>
   <g id="line2d_55">
    <path clip-path="url(#p10f4566c6c)" d="M 101.669091 95.756 
L 107.694545 95.756 
" style="fill:none;stroke:#d99999;stroke-linecap:square;stroke-width:3;"/>
   </g>
   <g id="line2d_56">
    <path clip-path="url(#p10f4566c6c)" d="M 101.669091 99.8288 
L 101.669091 91.6832 
" style="fill:none;stroke:#000000;stroke-linecap:square;stroke-width:2;"/>
   </g>
   <g id="line2d_57">
    <path clip-path="url(#p10f4566c6c)" d="M 107.694545 99.8288 
L 107.694545 91.6832 
" style="fill:none;stroke:#000000;stroke-linecap:square;stroke-width:2;"/>
   </g>
   <g id="line2d_58">
    <path clip-path="url(#p10f4566c6c)" d="M 107.694545 95.756 
L 113.72 95.756 
" style="fill:none;stroke:#d99999;stroke-linecap:square;stroke-width:3;"/>
   </g>
   <g id="line2d_59">
    <path clip-path="url(#p10f4566c6c)" d="M 107.694545 99.8288 
L 107.694545 91.6832 
" style="fill:none;stroke:#000000;stroke-linecap:square;stroke-width:2;"/>
   </g>
   <g id="line2d_60">
    <path clip-path="url(#p10f4566c6c)" d="M 113.72 99.8288 
L 113.72 91.6832 
" style="fill:none;stroke:#000000;stroke-linecap:square;stroke-width:2;"/>
   </g>
   <g id="line2d_61">
    <path clip-path="url(#p10f4566c6c)" d="M 113.72 95.756 
L 119.745455 95.756 
" style="fill:none;stroke:#d99999;stroke-linecap:square;stroke-width:3;"/>
   </g>
   <g id="line2d_62">
    <path clip-path="url(#p10f4566c6c)" d="M 113.72 99.8288 
L 113.72 91.6832 
" style="fill:none;stroke:#000000;stroke-linecap:square;stroke-width:2;"/>
   </g>
   <g id="line2d_63">
    <path clip-path="url(#p10f4566c6c)" d="M 119.745455 99.8288 
L 119.745455 91.6832 
" style="fill:none;stroke:#000000;stroke-linecap:square;stroke-width:2;"/>
   </g>
   <g id="line2d_64">
    <path clip-path="url(#p10f4566c6c)" d="M 119.745455 95.756 
L 125.770909 95.756 
" style="fill:none;stroke:#d99999;stroke-linecap:square;stroke-width:3;"/>
   </g>
   <g id="line2d_65">
    <path clip-path="url(#p10f4566c6c)" d="M 119.745455 99.8288 
L 119.745455 91.6832 
" style="fill:none;stroke:#000000;stroke-linecap:square;stroke-width:2;"/>
   </g>
   <g id="line2d_66">
    <path clip-path="url(#p10f4566c6c)" d="M 125.770909 99.8288 
L 125.770909 91.6832 
" style="fill:none;stroke:#000000;stroke-linecap:square;stroke-width:2;"/>
   </g>
   <g id="line2d_67">
    <path clip-path="url(#p10f4566c6c)" d="M 125.770909 95.756 
L 131.796364 95.756 
" style="fill:none;stroke:#d99999;stroke-linecap:square;stroke-width:3;"/>
   </g>
   <g id="line2d_68">
    <path clip-path="url(#p10f4566c6c)" d="M 125.770909 99.8288 
L 125.770909 91.6832 
" style="fill:none;stroke:#000000;stroke-linecap:square;stroke-width:2;"/>
   </g>
   <g id="line2d_69">
    <path clip-path="url(#p10f4566c6c)" d="M 131.796364 99.8288 
L 131.796364 91.6832 
" style="fill:none;stroke:#000000;stroke-linecap:square;stroke-width:2;"/>
   </g>
   <g id="line2d_70">
    <path clip-path="url(#p10f4566c6c)" d="M 131.796364 95.756 
L 137.821818 95.756 
" style="fill:none;stroke:#d99999;stroke-linecap:square;stroke-width:3;"/>
   </g>
   <g id="line2d_71">
    <path clip-path="url(#p10f4566c6c)" d="M 131.796364 99.8288 
L 131.796364 91.6832 
" style="fill:none;stroke:#000000;stroke-linecap:square;stroke-width:2;"/>
   </g>
   <g id="line2d_72">
    <path clip-path="url(#p10f4566c6c)" d="M 137.821818 99.8288 
L 137.821818 91.6832 
" style="fill:none;stroke:#000000;stroke-linecap:square;stroke-width:2;"/>
   </g>
   <g id="line2d_73">
    <path clip-path="url(#p10f4566c6c)" d="M 137.821818 95.756 
L 143.847273 95.756 
" style="fill:none;stroke:#d99999;stroke-linecap:square;stroke-width:3;"/>
   </g>
   <g id="line2d_74">
    <path clip-path="url(#p10f4566c6c)" d="M 137.821818 99.8288 
L 137.821818 91.6832 
" style="fill:none;stroke:#000000;stroke-linecap:square;stroke-width:2;"/>
   </g>
   <g id="line2d_75">
    <path clip-path="url(#p10f4566c6c)" d="M 143.847273 99.8288 
L 143.847273 91.6832 
" style="fill:none;stroke:#000000;stroke-linecap:square;stroke-width:2;"/>
   </g>
   <g id="line2d_76">
    <path clip-path="url(#p10f4566c6c)" d="M 143.847273 95.756 
L 149.872727 95.756 
" style="fill:none;stroke:#d99999;stroke-linecap:square;stroke-width:3;"/>
   </g>
   <g id="line2d_77">
    <path clip-path="url(#p10f4566c6c)" d="M 143.847273 99.8288 
L 143.847273 91.6832 
" style="fill:none;stroke:#000000;stroke-linecap:square;stroke-width:2;"/>
   </g>
   <g id="line2d_78">
    <path clip-path="url(#p10f4566c6c)" d="M 149.872727 99.8288 
L 149.872727 91.6832 
" style="fill:none;stroke:#000000;stroke-linecap:square;stroke-width:2;"/>
   </g>
   <g id="line2d_79">
    <path clip-path="url(#p10f4566c6c)" d="M 149.872727 95.756 
L 155.898182 95.756 
" style="fill:none;stroke:#d99999;stroke-linecap:square;stroke-width:3;"/>
   </g>
   <g id="line2d_80">
    <path clip-path="url(#p10f4566c6c)" d="M 149.872727 99.8288 
L 149.872727 91.6832 
" style="fill:none;stroke:#000000;stroke-linecap:square;stroke-width:2;"/>
   </g>
   <g id="line2d_81">
    <path clip-path="url(#p10f4566c6c)" d="M 155.898182 99.8288 
L 155.898182 91.6832 
" style="fill:none;stroke:#000000;stroke-linecap:square;stroke-width:2;"/>
   </g>
   <g id="line2d_82">
    <path clip-path="url(#p10f4566c6c)" d="M 155.898182 95.756 
L 161.923636 95.756 
" style="fill:none;stroke:#d99999;stroke-linecap:square;stroke-width:3;"/>
   </g>
   <g id="line2d_83">
    <path clip-path="url(#p10f4566c6c)" d="M 155.898182 99.8288 
L 155.898182 91.6832 
" style="fill:none;stroke:#000000;stroke-linecap:square;stroke-width:2;"/>
   </g>
   <g id="line2d_84">
    <path clip-path="url(#p10f4566c6c)" d="M 161.923636 99.8288 
L 161.923636 91.6832 
" style="fill:none;stroke:#000000;stroke-linecap:square;stroke-width:2;"/>
   </g>
   <g id="line2d_85">
    <path clip-path="url(#p10f4566c6c)" d="M 161.923636 95.756 
L 167.949091 95.756 
" style="fill:none;stroke:#d99999;stroke-linecap:square;stroke-width:3;"/>
   </g>
   <g id="line2d_86">
    <path clip-path="url(#p10f4566c6c)" d="M 161.923636 99.8288 
L 161.923636 91.6832 
" style="fill:none;stroke:#000000;stroke-linecap:square;stroke-width:2;"/>
   </g>
   <g id="line2d_87">
    <path clip-path="url(#p10f4566c6c)" d="M 167.949091 99.8288 
L 167.949091 91.6832 
" style="fill:none;stroke:#000000;stroke-linecap:square;stroke-width:2;"/>
   </g>
   <g id="line2d_88">
    <path clip-path="url(#p10f4566c6c)" d="M 167.949091 95.756 
L 173.974545 95.756 
" style="fill:none;stroke:#d99999;stroke-linecap:square;stroke-width:3;"/>
   </g>
   <g id="line2d_89">
    <path clip-path="url(#p10f4566c6c)" d="M 167.949091 99.8288 
L 167.949091 91.6832 
" style="fill:none;stroke:#000000;stroke-linecap:square;stroke-width:2;"/>
   </g>
   <g id="line2d_90">
    <path clip-path="url(#p10f4566c6c)" d="M 173.974545 99.8288 
L 173.974545 91.6832 
" style="fill:none;stroke:#000000;stroke-linecap:square;stroke-width:2;"/>
   </g>
   <g id="line2d_91">
    <path clip-path="url(#p10f4566c6c)" d="M 173.974545 95.756 
L 180 95.756 
" style="fill:none;stroke:#d99999;stroke-linecap:square;stroke-width:3;"/>
   </g>
   <g id="line2d_92">
    <path clip-path="url(#p10f4566c6c)" d="M 173.974545 99.8288 
L 173.974545 91.6832 
" style="fill:none;stroke:#000000;stroke-linecap:square;stroke-width:2;"/>
   </g>
   <g id="line2d_93">
    <path clip-path="url(#p10f4566c6c)" d="M 180 99.8288 
L 180 91.6832 
" style="fill:none;stroke:#000000;stroke-linecap:square;stroke-width:2;"/>
   </g>
   <g id="line2d_94">
    <path clip-path="url(#p10f4566c6c)" d="M 180 95.756 
L 186.025455 95.756 
" style="fill:none;stroke:#d99999;stroke-linecap:square;stroke-width:3;"/>
   </g>
   <g id="line2d_95">
    <path clip-path="url(#p10f4566c6c)" d="M 180 99.8288 
L 180 91.6832 
" style="fill:none;stroke:#000000;stroke-linecap:square;stroke-width:2;"/>
   </g>
   <g id="line2d_96">
    <path clip-path="url(#p10f4566c6c)" d="M 186.025455 99.8288 
L 186.025455 91.6832 
" style="fill:none;stroke:#000000;stroke-linecap:square;stroke-width:2;"/>
   </g>
   <g id="line2d_97">
    <path clip-path="url(#p10f4566c6c)" d="M 186.025455 95.756 
L 192.050909 95.756 
" style="fill:none;stroke:#d99999;stroke-linecap:square;stroke-width:3;"/>
   </g>
   <g id="line2d_98">
    <path clip-path="url(#p10f4566c6c)" d="M 186.025455 99.8288 
L 186.025455 91.6832 
" style="fill:none;stroke:#000000;stroke-linecap:square;stroke-width:2;"/>
   </g>
   <g id="line2d_99">
    <path clip-path="url(#p10f4566c6c)" d="M 192.050909 99.8288 
L 192.050909 91.6832 
" style="fill:none;stroke:#000000;stroke-linecap:square;stroke-width:2;"/>
   </g>
   <g id="line2d_100">
    <path clip-path="url(#p10f4566c6c)" d="M 192.050909 95.756 
L 198.076364 95.756 
" style="fill:none;stroke:#d99999;stroke-linecap:square;stroke-width:3;"/>
   </g>
   <g id="line2d_101">
    <path clip-path="url(#p10f4566c6c)" d="M 192.050909 99.8288 
L 192.050909 91.6832 
" style="fill:none;stroke:#000000;stroke-linecap:square;stroke-width:2;"/>
   </g>
   <g id="line2d_102">
    <path clip-path="url(#p10f4566c6c)" d="M 198.076364 99.8288 
L 198.076364 91.6832 
" style="fill:none;stroke:#000000;stroke-linecap:square;stroke-width:2;"/>
   </g>
   <g id="line2d_103">
    <path clip-path="url(#p10f4566c6c)" d="M 198.076364 95.756 
L 204.101818 95.756 
" style="fill:none;stroke:#d99999;stroke-linecap:square;stroke-width:3;"/>
   </g>
   <g id="line2d_104">
    <path clip-path="url(#p10f4566c6c)" d="M 198.076364 99.8288 
L 198.076364 91.6832 
" style="fill:none;stroke:#000000;stroke-linecap:square;stroke-width:2;"/>
   </g>
   <g id="line2d_105">
    <path clip-path="url(#p10f4566c6c)" d="M 204.101818 99.8288 
L 204.101818 91.6832 
" style="fill:none;stroke:#000000;stroke-linecap:square;stroke-width:2;"/>
   </g>
   <g id="line2d_106">
    <path clip-path="url(#p10f4566c6c)" d="M 204.101818 95.756 
L 210.127273 95.756 
" style="fill:none;stroke:#d99999;stroke-linecap:square;stroke-width:3;"/>
   </g>
   <g id="line2d_107">
    <path clip-path="url(#p10f4566c6c)" d="M 204.101818 99.8288 
L 204.101818 91.6832 
" style="fill:none;stroke:#000000;stroke-linecap:square;stroke-width:2;"/>
   </g>
   <g id="line2d_108">
    <path clip-path="url(#p10f4566c6c)" d="M 210.127273 99.8288 
L 210.127273 91.6832 
" style="fill:none;stroke:#000000;stroke-linecap:square;stroke-width:2;"/>
   </g>
   <g id="line2d_109">
    <path clip-path="url(#p10f4566c6c)" d="M 210.127273 95.756 
L 216.152727 95.756 
" style="fill:none;stroke:#d99999;stroke-linecap:square;stroke-width:3;"/>
   </g>
   <g id="line2d_110">
    <path clip-path="url(#p10f4566c6c)" d="M 210.127273 99.8288 
L 210.127273 91.6832 
" style="fill:none;stroke:#000000;stroke-linecap:square;stroke-width:2;"/>
   </g>
   <g id="line2d_111">
    <path clip-path="url(#p10f4566c6c)" d="M 216.152727 99.8288 
L 216.152727 91.6832 
" style="fill:none;stroke:#000000;stroke-linecap:square;stroke-width:2;"/>
   </g>
   <g id="line2d_112">
    <path clip-path="url(#p10f4566c6c)" d="M 216.152727 95.756 
L 222.178182 95.756 
" style="fill:none;stroke:#d99999;stroke-linecap:square;stroke-width:3;"/>
   </g>
   <g id="line2d_113">
    <path clip-path="url(#p10f4566c6c)" d="M 216.152727 99.8288 
L 216.152727 91.6832 
" style="fill:none;stroke:#000000;stroke-linecap:square;stroke-width:2;"/>
   </g>
   <g id="line2d_114">
    <path clip-path="url(#p10f4566c6c)" d="M 222.178182 99.8288 
L 222.178182 91.6832 
" style="fill:none;stroke:#000000;stroke-linecap:square;stroke-width:2;"/>
   </g>
   <g id="line2d_115">
    <path clip-path="url(#p10f4566c6c)" d="M 222.178182 95.756 
L 228.203636 95.756 
" style="fill:none;stroke:#d99999;stroke-linecap:square;stroke-width:3;"/>
   </g>
   <g id="line2d_116">
    <path clip-path="url(#p10f4566c6c)" d="M 222.178182 99.8288 
L 222.178182 91.6832 
" style="fill:none;stroke:#000000;stroke-linecap:square;stroke-width:2;"/>
   </g>
   <g id="line2d_117">
    <path clip-path="url(#p10f4566c6c)" d="M 228.203636 99.8288 
L 228.203636 91.6832 
" style="fill:none;stroke:#000000;stroke-linecap:square;stroke-width:2;"/>
   </g>
   <g id="line2d_118">
    <path clip-path="url(#p10f4566c6c)" d="M 228.203636 95.756 
L 234.229091 95.756 
" style="fill:none;stroke:#d99999;stroke-linecap:square;stroke-width:3;"/>
   </g>
   <g id="line2d_119">
    <path clip-path="url(#p10f4566c6c)" d="M 228.203636 99.8288 
L 228.203636 91.6832 
" style="fill:none;stroke:#000000;stroke-linecap:square;stroke-width:2;"/>
   </g>
   <g id="line2d_120">
    <path clip-path="url(#p10f4566c6c)" d="M 234.229091 99.8288 
L 234.229091 91.6832 
" style="fill:none;stroke:#000000;stroke-linecap:square;stroke-width:2;"/>
   </g>
   <g id="line2d_121">
    <path clip-path="url(#p10f4566c6c)" d="M 234.229091 95.756 
L 240.254545 95.756 
" style="fill:none;stroke:#d99999;stroke-linecap:square;stroke-width:3;"/>
   </g>
   <g id="line2d_122">
    <path clip-path="url(#p10f4566c6c)" d="M 234.229091 99.8288 
L 234.229091 91.6832 
" style="fill:none;stroke:#000000;stroke-linecap:square;stroke-width:2;"/>
   </g>
   <g id="line2d_123">
    <path clip-path="url(#p10f4566c6c)" d="M 240.254545 99.8288 
L 240.254545 91.6832 
" style="fill:none;stroke:#000000;stroke-linecap:square;stroke-width:2;"/>
   </g>
   <g id="line2d_124">
    <path clip-path="url(#p10f4566c6c)" d="M 240.254545 95.756 
L 246.28 95.756 
" style="fill:none;stroke:#d99999;stroke-linecap:square;stroke-width:3;"/>
   </g>
   <g id="line2d_125">
    <path clip-path="url(#p10f4566c6c)" d="M 240.254545 99.8288 
L 240.254545 91.6832 
" style="fill:none;stroke:#000000;stroke-linecap:square;stroke-width:2;"/>
   </g>
   <g id="line2d_126">
    <path clip-path="url(#p10f4566c6c)" d="M 246.28 99.8288 
L 246.28 91.6832 
" style="fill:none;stroke:#000000;stroke-linecap:square;stroke-width:2;"/>
   </g>
   <g id="line2d_127">
    <path clip-path="url(#p10f4566c6c)" d="M 246.28 95.756 
L 252.305455 95.756 
" style="fill:none;stroke:#d99999;stroke-linecap:square;stroke-width:3;"/>
   </g>
   <g id="line2d_128">
    <path clip-path="url(#p10f4566c6c)" d="M 246.28 99.8288 
L 246.28 91.6832 
" style="fill:none;stroke:#000000;stroke-linecap:square;stroke-width:2;"/>
   </g>
   <g id="line2d_129">
    <path clip-path="url(#p10f4566c6c)" d="M 252.305455 99.8288 
L 252.305455 91.6832 
" style="fill:none;stroke:#000000;stroke-linecap:square;stroke-width:2;"/>
   </g>
   <g id="line2d_130">
    <path clip-path="url(#p10f4566c6c)" d="M 252.305455 95.756 
L 258.330909 95.756 
" style="fill:none;stroke:#d99999;stroke-linecap:square;stroke-width:3;"/>
   </g>
   <g id="line2d_131">
    <path clip-path="url(#p10f4566c6c)" d="M 252.305455 99.8288 
L 252.305455 91.6832 
" style="fill:none;stroke:#000000;stroke-linecap:square;stroke-width:2;"/>
   </g>
   <g id="line2d_132">
    <path clip-path="url(#p10f4566c6c)" d="M 258.330909 99.8288 
L 258.330909 91.6832 
" style="fill:none;stroke:#000000;stroke-linecap:square;stroke-width:2;"/>
   </g>
   <g id="line2d_133">
    <path clip-path="url(#p10f4566c6c)" d="M 258.330909 95.756 
L 264.356364 95.756 
" style="fill:none;stroke:#d99999;stroke-linecap:square;stroke-width:3;"/>
   </g>
   <g id="line2d_134">
    <path clip-path="url(#p10f4566c6c)" d="M 258.330909 99.8288 
L 258.330909 91.6832 
" style="fill:none;stroke:#000000;stroke-linecap:square;stroke-width:2;"/>
   </g>
   <g id="line2d_135">
    <path clip-path="url(#p10f4566c6c)" d="M 264.356364 99.8288 
L 264.356364 91.6832 
" style="fill:none;stroke:#000000;stroke-linecap:square;stroke-width:2;"/>
   </g>
   <g id="line2d_136">
    <path clip-path="url(#p10f4566c6c)" d="M 264.356364 95.756 
L 270.381818 95.756 
" style="fill:none;stroke:#d99999;stroke-linecap:square;stroke-width:3;"/>
   </g>
   <g id="line2d_137">
    <path clip-path="url(#p10f4566c6c)" d="M 264.356364 99.8288 
L 264.356364 91.6832 
" style="fill:none;stroke:#000000;stroke-linecap:square;stroke-width:2;"/>
   </g>
   <g id="line2d_138">
    <path clip-path="url(#p10f4566c6c)" d="M 270.381818 99.8288 
L 270.381818 91.6832 
" style="fill:none;stroke:#000000;stroke-linecap:square;stroke-width:2;"/>
   </g>
   <g id="line2d_139">
    <path clip-path="url(#p10f4566c6c)" d="M 270.381818 95.756 
L 276.407273 95.756 
" style="fill:none;stroke:#d99999;stroke-linecap:square;stroke-width:3;"/>
   </g>
   <g id="line2d_140">
    <path clip-path="url(#p10f4566c6c)" d="M 270.381818 99.8288 
L 270.381818 91.6832 
" style="fill:none;stroke:#000000;stroke-linecap:square;stroke-width:2;"/>
   </g>
   <g id="line2d_141">
    <path clip-path="url(#p10f4566c6c)" d="M 276.407273 99.8288 
L 276.407273 91.6832 
" style="fill:none;stroke:#000000;stroke-linecap:square;stroke-width:2;"/>
   </g>
   <g id="line2d_142">
    <path clip-path="url(#p10f4566c6c)" d="M 276.407273 95.756 
L 282.432727 95.756 
" style="fill:none;stroke:#d99999;stroke-linecap:square;stroke-width:3;"/>
   </g>
   <g id="line2d_143">
    <path clip-path="url(#p10f4566c6c)" d="M 276.407273 99.8288 
L 276.407273 91.6832 
" style="fill:none;stroke:#000000;stroke-linecap:square;stroke-width:2;"/>
   </g>
   <g id="line2d_144">
    <path clip-path="url(#p10f4566c6c)" d="M 282.432727 99.8288 
L 282.432727 91.6832 
" style="fill:none;stroke:#000000;stroke-linecap:square;stroke-width:2;"/>
   </g>
   <g id="line2d_145">
    <path clip-path="url(#p10f4566c6c)" d="M 282.432727 95.756 
L 288.458182 95.756 
" style="fill:none;stroke:#d99999;stroke-linecap:square;stroke-width:3;"/>
   </g>
   <g id="line2d_146">
    <path clip-path="url(#p10f4566c6c)" d="M 282.432727 99.8288 
L 282.432727 91.6832 
" style="fill:none;stroke:#000000;stroke-linecap:square;stroke-width:2;"/>
   </g>
   <g id="line2d_147">
    <path clip-path="url(#p10f4566c6c)" d="M 288.458182 99.8288 
L 288.458182 91.6832 
" style="fill:none;stroke:#000000;stroke-linecap:square;stroke-width:2;"/>
   </g>
   <g id="line2d_148">
    <path clip-path="url(#p10f4566c6c)" d="M 288.458182 95.756 
L 294.483636 95.756 
" style="fill:none;stroke:#d99999;stroke-linecap:square;stroke-width:3;"/>
   </g>
   <g id="line2d_149">
    <path clip-path="url(#p10f4566c6c)" d="M 288.458182 99.8288 
L 288.458182 91.6832 
" style="fill:none;stroke:#000000;stroke-linecap:square;stroke-width:2;"/>
   </g>
   <g id="line2d_150">
    <path clip-path="url(#p10f4566c6c)" d="M 294.483636 99.8288 
L 294.483636 91.6832 
" style="fill:none;stroke:#000000;stroke-linecap:square;stroke-width:2;"/>
   </g>
   <g id="line2d_151">
    <path clip-path="url(#p10f4566c6c)" d="M 294.483636 95.756 
L 300.509091 95.756 
" style="fill:none;stroke:#d99999;stroke-linecap:square;stroke-width:3;"/>
   </g>
   <g id="line2d_152">
    <path clip-path="url(#p10f4566c6c)" d="M 294.483636 99.8288 
L 294.483636 91.6832 
" style="fill:none;stroke:#000000;stroke-linecap:square;stroke-width:2;"/>
   </g>
   <g id="line2d_153">
    <path clip-path="url(#p10f4566c6c)" d="M 300.509091 99.8288 
L 300.509091 91.6832 
" style="fill:none;stroke:#000000;stroke-linecap:square;stroke-width:2;"/>
   </g>
   <g id="line2d_154">
    <path clip-path="url(#p10f4566c6c)" d="M 300.509091 95.756 
L 306.534545 95.756 
" style="fill:none;stroke:#d99999;stroke-linecap:square;stroke-width:3;"/>
   </g>
   <g id="line2d_155">
    <path clip-path="url(#p10f4566c6c)" d="M 300.509091 99.8288 
L 300.509091 91.6832 
" style="fill:none;stroke:#000000;stroke-linecap:square;stroke-width:2;"/>
   </g>
   <g id="line2d_156">
    <path clip-path="url(#p10f4566c6c)" d="M 306.534545 99.8288 
L 306.534545 91.6832 
" style="fill:none;stroke:#000000;stroke-linecap:square;stroke-width:2;"/>
   </g>
   <g id="line2d_157">
    <path clip-path="url(#p10f4566c6c)" d="M 306.534545 95.756 
L 312.56 95.756 
" style="fill:none;stroke:#d99999;stroke-linecap:square;stroke-width:3;"/>
   </g>
   <g id="line2d_158">
    <path clip-path="url(#p10f4566c6c)" d="M 306.534545 99.8288 
L 306.534545 91.6832 
" style="fill:none;stroke:#000000;stroke-linecap:square;stroke-width:2;"/>
   </g>
   <g id="line2d_159">
    <path clip-path="url(#p10f4566c6c)" d="M 312.56 99.8288 
L 312.56 91.6832 
" style="fill:none;stroke:#000000;stroke-linecap:square;stroke-width:2;"/>
   </g>
   <g id="line2d_160">
    <path clip-path="url(#p10f4566c6c)" d="M 312.56 95.756 
L 318.585455 95.756 
" style="fill:none;stroke:#d99999;stroke-linecap:square;stroke-width:3;"/>
   </g>
   <g id="line2d_161">
    <path clip-path="url(#p10f4566c6c)" d="M 312.56 99.8288 
L 312.56 91.6832 
" style="fill:none;stroke:#000000;stroke-linecap:square;stroke-width:2;"/>
   </g>
   <g id="line2d_162">
    <path clip-path="url(#p10f4566c6c)" d="M 318.585455 99.8288 
L 318.585455 91.6832 
" style="fill:none;stroke:#000000;stroke-linecap:square;stroke-width:2;"/>
   </g>
   <g id="line2d_163">
    <path clip-path="url(#p10f4566c6c)" d="M 318.585455 95.756 
L 324.610909 95.756 
" style="fill:none;stroke:#d99999;stroke-linecap:square;stroke-width:3;"/>
   </g>
   <g id="line2d_164">
    <path clip-path="url(#p10f4566c6c)" d="M 318.585455 99.8288 
L 318.585455 91.6832 
" style="fill:none;stroke:#000000;stroke-linecap:square;stroke-width:2;"/>
   </g>
   <g id="line2d_165">
    <path clip-path="url(#p10f4566c6c)" d="M 324.610909 99.8288 
L 324.610909 91.6832 
" style="fill:none;stroke:#000000;stroke-linecap:square;stroke-width:2;"/>
   </g>
   <g id="line2d_166">
    <path clip-path="url(#p10f4566c6c)" d="M 324.610909 95.756 
L 330.636364 95.756 
" style="fill:none;stroke:#d99999;stroke-linecap:square;stroke-width:3;"/>
   </g>
   <g id="line2d_167">
    <path clip-path="url(#p10f4566c6c)" d="M 324.610909 99.8288 
L 324.610909 91.6832 
" style="fill:none;stroke:#000000;stroke-linecap:square;stroke-width:2;"/>
   </g>
   <g id="line2d_168">
    <path clip-path="url(#p10f4566c6c)" d="M 330.636364 99.8288 
L 330.636364 91.6832 
" style="fill:none;stroke:#000000;stroke-linecap:square;stroke-width:2;"/>
   </g>
   <g id="line2d_169">
    <path clip-path="url(#p10f4566c6c)" d="M 29.363636 103.9016 
L 29.363636 87.6104 
" style="fill:none;stroke:#ff0000;stroke-linecap:square;stroke-width:3;"/>
   </g>
   <g id="line2d_170">
    <path clip-path="url(#p10f4566c6c)" d="M 330.636364 103.9016 
L 330.636364 87.6104 
" style="fill:none;stroke:#00ff00;stroke-linecap:square;stroke-width:3;"/>
   </g>
   <g id="patch_3">
    <path d="M 14.3 116.12 
L 14.3 14.3 
" style="fill:none;stroke:#000000;stroke-linecap:square;stroke-linejoin:miter;stroke-width:0.8;"/>
   </g>
   <g id="patch_4">
    <path d="M 345.7 116.12 
L 345.7 14.3 
" style="fill:none;stroke:#000000;stroke-linecap:square;stroke-linejoin:miter;stroke-width:0.8;"/>
   </g>
   <g id="patch_5">
    <path d="M 14.3 116.12 
L 345.7 116.12 
" style="fill:none;stroke:#000000;stroke-linecap:square;stroke-linejoin:miter;stroke-width:0.8;"/>
   </g>
   <g id="patch_6">
    <path d="M 14.3 14.3 
L 345.7 14.3 
" style="fill:none;stroke:#000000;stroke-linecap:square;stroke-linejoin:miter;stroke-width:0.8;"/>
   </g>
  </g>
 </g>
 <defs>
  <clipPath id="p10f4566c6c">
   <rect height="101.82" width="331.4" x="14.3" y="14.3"/>
  </clipPath>
 </defs>
</svg>
