<?xml version="1.0" encoding="utf-8" standalone="no"?>
<!DOCTYPE svg PUBLIC "-//W3C//DTD SVG 1.1//EN"
  "http://www.w3.org/Graphics/SVG/1.1/DTD/svg11.dtd">
<svg height="360pt" version="1.1" viewBox="0 0 360 360" width="360pt" xmlns="http://www.w3.org/2000/svg" xmlns:xlink="http://www.w3.org/1999/xlink">
 <metadata>
  <rdf:RDF xmlns:cc="http://creativecommons.org/ns#" xmlns:dc="http://purl.org/dc/elements/1.1/" xmlns:rdf="http://www.w3.org/1999/02/22-rdf-syntax-ns#">
   <cc:Work>
    <dc:type rdf:resource="http://purl.org/dc/dcmitype/StillImage"/>
    <dc:date>2021-11-05T09:24:12.716127</dc:date>
    <dc:format>image/svg+xml</dc:format>
    <dc:creator>
     <cc:Agent>
      <dc:title>Matplotlib v3.4.3, https://matplotlib.org/</dc:title>
     </cc:Agent>
    </dc:creator>
   </cc:Work>
  </rdf:RDF>
 </metadata>
 <defs>
  <style type="text/css">*{stroke-linecap:butt;stroke-linejoin:round;}</style>
 </defs>
 <g id="figure_1">
  <g id="patch_1">
   <path d="M 0 360 
L 360 360 
L 360 0 
L 0 0 
z
" style="fill:#ffffff;"/>
  </g>
  <g id="axes_1">
   <g id="patch_2">
    <path d="M 24.942354 335.144698 
L 349.2 335.144698 
L 349.2 10.887052 
L 24.942354 10.887052 
z
" style="fill:#ffffff;"/>
   </g>
   <g id="Quiver_1">
    <path clip-path="url(#pd0ca201f6b)" d="M 39.073355 320.405714 
L 39.073355 311.275843 
L 37.857388 311.883826 
L 39.681337 305.803995 
L 41.505287 311.883826 
L 40.289321 311.275843 
L 40.289321 320.405714 
L 39.073355 320.405714 
"/>
    <path clip-path="url(#pd0ca201f6b)" d="M 39.085801 300.631344 
L 39.556026 298.343292 
L 38.242562 298.694048 
L 41.253077 293.105853 
L 41.815782 299.428391 
L 40.747099 298.588073 
L 40.276875 300.876125 
L 39.085801 300.631344 
"/>
    <path clip-path="url(#pd0ca201f6b)" d="M 39.811317 280.750042 
L 40.163031 280.880021 
L 40.071276 280.046616 
L 43.198469 282.401549 
L 39.2914 282.156894 
L 39.903072 281.583447 
L 39.551359 281.453468 
L 39.811317 280.750042 
"/>
    <path clip-path="url(#pd0ca201f6b)" d="M 40.289321 261.449778 
L 40.289321 271.799645 
L 41.505287 271.191661 
L 39.681337 277.271492 
L 37.857388 271.191661 
L 39.073355 271.799644 
L 39.073355 261.449778 
L 40.289321 261.449778 
"/>
    <path clip-path="url(#pd0ca201f6b)" d="M 40.289238 241.807878 
L 40.104026 252.975289 
L 41.329907 252.387553 
L 39.405388 258.436302 
L 37.68251 252.327061 
L 38.888227 252.955125 
L 39.073439 241.787714 
L 40.289238 241.807878 
"/>
    <path clip-path="url(#pd0ca201f6b)" d="M 40.279507 222.254616 
L 38.967433 229.468374 
L 40.272569 229.087801 
L 37.390081 234.743099 
L 36.683554 228.435013 
L 37.771094 229.250778 
L 39.083169 222.03702 
L 40.279507 222.254616 
"/>
    <path clip-path="url(#pd0ca201f6b)" d="M 39.281556 202.493841 
L 39.281556 202.094059 
L 38.481991 202.493841 
L 39.681337 198.496019 
L 40.880685 202.493841 
L 40.08112 202.094059 
L 40.08112 202.493841 
L 39.281556 202.493841 
"/>
    <path clip-path="url(#pd0ca201f6b)" d="M 39.076661 182.905182 
L 38.399186 176.435418 
L 37.25315 177.166731 
L 38.433999 170.930007 
L 40.881212 176.786822 
L 39.60854 176.308782 
L 40.286015 182.778546 
L 39.076661 182.905182 
"/>
    <path clip-path="url(#pd0ca201f6b)" d="M 39.074148 163.220921 
L 38.529947 152.576845 
L 37.346611 153.246123 
L 38.857742 147.081092 
L 40.989751 153.05986 
L 39.744327 152.514758 
L 40.288528 163.158834 
L 39.074148 163.220921 
"/>
    <path clip-path="url(#pd0ca201f6b)" d="M 39.073355 143.5379 
L 39.073356 137.887755 
L 37.85739 138.495738 
L 39.68134 132.415907 
L 41.505288 138.495738 
L 40.289322 137.887755 
L 40.289321 143.5379 
L 39.073355 143.5379 
"/>
    <path clip-path="url(#pd0ca201f6b)" d="M 39.41781 123.711694 
L 39.592039 123.448166 
L 38.890754 123.363237 
L 41.423625 121.250642 
L 40.471922 124.408609 
L 40.119095 123.796623 
L 39.944866 124.060152 
L 39.41781 123.711694 
"/>
    <path clip-path="url(#pd0ca201f6b)" d="M 40.222044 103.955952 
L 40.979554 105.429331 
L 41.782972 104.332637 
L 42.940792 110.573678 
L 38.538737 106.0006 
L 39.898142 105.985318 
L 39.140632 104.511939 
L 40.222044 103.955952 
"/>
    <path clip-path="url(#pd0ca201f6b)" d="M 40.289321 84.581968 
L 40.289321 96.18263 
L 41.505287 95.574647 
L 39.681337 101.654477 
L 37.857388 95.574647 
L 39.073354 96.18263 
L 39.073355 84.581968 
L 40.289321 84.581968 
"/>
    <path clip-path="url(#pd0ca201f6b)" d="M 40.288458 64.962383 
L 39.77915 74.508124 
L 41.025782 73.965789 
L 38.880498 79.939807 
L 37.383064 73.771434 
L 38.564911 74.443339 
L 39.074219 64.897598 
L 40.288458 64.962383 
"/>
    <path clip-path="url(#pd0ca201f6b)" d="M 40.255631 45.477591 
L 39.043711 48.96494 
L 40.391874 48.789802 
L 36.673219 53.933997 
L 36.946117 47.592336 
L 37.895125 48.565784 
L 39.107045 45.078436 
L 40.255631 45.477591 
"/>
    <path clip-path="url(#pd0ca201f6b)" d="M 39.681338 26.155237 
L 39.152137 26.155237 
L 39.681338 27.213639 
L 34.389329 25.626036 
L 39.681338 24.038433 
L 39.152137 25.096835 
L 39.681338 25.096835 
L 39.681338 26.155237 
"/>
    <path clip-path="url(#pd0ca201f6b)" d="M 58.745409 320.250773 
L 60.857256 312.23755 
L 59.526498 312.515578 
L 62.83963 307.101311 
L 63.053951 313.445221 
L 62.033074 312.547431 
L 59.921227 320.560655 
L 58.745409 320.250773 
"/>
    <path clip-path="url(#pd0ca201f6b)" d="M 58.773831 300.515788 
L 60.697481 295.992678 
L 59.340562 296.076272 
L 63.398482 291.195246 
L 62.697481 297.503949 
L 61.816454 296.46857 
L 59.892804 300.991681 
L 58.773831 300.515788 
"/>
    <path clip-path="url(#pd0ca201f6b)" d="M 59.185227 280.512083 
L 60.553475 280.168461 
L 59.667623 279.137208 
L 66.008611 279.42532 
L 60.556165 282.675238 
L 60.849656 281.347804 
L 59.481408 281.691427 
L 59.185227 280.512083 
"/>
    <path clip-path="url(#pd0ca201f6b)" d="M 59.908807 261.253677 
L 62.13907 267.798742 
L 63.093948 266.831052 
L 63.328488 273.174247 
L 59.641012 268.007656 
L 60.988091 268.190944 
L 58.757828 261.645878 
L 59.908807 261.253677 
"/>
    <path clip-path="url(#pd0ca201f6b)" d="M 59.941282 241.793039 
L 60.021624 252.061546 
L 61.232796 251.444068 
L 59.45647 257.537983 
L 57.585009 251.472609 
L 58.805695 252.07106 
L 58.725353 241.802553 
L 59.941282 241.793039 
"/>
    <path clip-path="url(#pd0ca201f6b)" d="M 59.919248 222.30808 
L 57.778907 230.036905 
L 59.11303 229.775498 
L 55.732623 235.148019 
L 55.597447 228.801929 
L 56.607046 229.712382 
L 58.747387 221.983557 
L 59.919248 222.30808 
"/>
    <path clip-path="url(#pd0ca201f6b)" d="M 59.29791 203.100792 
L 56.557554 202.940927 
L 57.093689 204.190237 
L 51.130402 202.015305 
L 57.306137 200.54853 
L 56.62837 201.727025 
L 59.368726 201.88689 
L 59.29791 203.100792 
"/>
    <path clip-path="url(#pd0ca201f6b)" d="M 58.914516 183.2826 
L 54.87336 179.442566 
L 54.476493 180.74284 
L 51.325534 175.232614 
L 56.989303 178.098422 
L 55.710963 178.561093 
L 59.752119 182.401127 
L 58.914516 183.2826 
"/>
    <path clip-path="url(#pd0ca201f6b)" d="M 58.734896 163.29728 
L 57.259098 155.074505 
L 56.169658 155.887732 
L 56.890894 149.58131 
L 59.760186 155.243315 
L 58.45594 154.859699 
L 59.931739 163.082475 
L 58.734896 163.29728 
"/>
    <path clip-path="url(#pd0ca201f6b)" d="M 58.790829 143.263401 
L 61.968272 136.983881 
L 60.608796 136.97737 
L 64.981256 132.375987 
L 63.863725 138.624367 
L 63.053249 137.53288 
L 59.875806 143.8124 
L 58.790829 143.263401 
"/>
    <path clip-path="url(#pd0ca201f6b)" d="M 58.886712 123.473385 
L 59.999805 122.268372 
L 58.694057 121.889903 
L 64.159247 118.661462 
L 61.373689 124.365127 
L 60.893015 123.093447 
L 59.779923 124.29846 
L 58.886712 123.473385 
"/>
    <path clip-path="url(#pd0ca201f6b)" d="M 59.588701 103.6822 
L 61.09493 104.379381 
L 61.053952 103.020507 
L 65.805254 107.229576 
L 59.521652 106.330978 
L 60.584164 105.482871 
L 59.077934 104.785691 
L 59.588701 103.6822 
"/>
    <path clip-path="url(#pd0ca201f6b)" d="M 59.937323 84.512536 
L 60.875806 92.676641 
L 62.014385 91.933772 
L 60.896687 98.182123 
L 58.390352 92.350363 
L 59.667795 92.815505 
L 58.729312 84.6514 
L 59.937323 84.512536 
"/>
    <path clip-path="url(#pd0ca201f6b)" d="M 59.938461 64.988683 
L 59.003417 74.629325 
L 60.272397 74.141567 
L 57.870039 80.016924 
L 56.641536 73.789411 
L 57.79313 74.51194 
L 58.728174 64.871298 
L 59.938461 64.988683 
"/>
    <path clip-path="url(#pd0ca201f6b)" d="M 59.874465 45.555148 
L 57.202883 50.771818 
L 58.562311 50.78494 
L 54.167527 55.365006 
L 55.315429 49.122134 
L 56.120589 50.21755 
L 58.792171 45.000879 
L 59.874465 45.555148 
"/>
    <path clip-path="url(#pd0ca201f6b)" d="M 59.531765 26.20072 
L 56.4892 27.251363 
L 57.460778 28.202285 
L 51.118593 28.462702 
L 56.270096 24.754178 
L 56.092306 26.101994 
L 59.134871 25.051352 
L 59.531765 26.20072 
"/>
    <path clip-path="url(#pd0ca201f6b)" d="M 78.38906 320.286785 
L 79.731708 313.555591 
L 78.420303 313.913969 
L 81.39831 308.308382 
L 81.997728 314.627546 
L 80.924183 313.793449 
L 79.581535 320.524643 
L 78.38906 320.286785 
"/>
    <path clip-path="url(#pd0ca201f6b)" d="M 78.554332 300.324884 
L 82.97571 295.881707 
L 81.68493 295.454971 
L 87.266329 292.431874 
L 84.270719 298.028074 
L 83.83764 296.739408 
L 79.416262 301.182585 
L 78.554332 300.324884 
"/>
    <path clip-path="url(#pd0ca201f6b)" d="M 78.754245 280.539386 
L 83.017167 278.787941 
L 81.992694 277.894256 
L 88.309536 277.270839 
L 83.379008 281.268467 
L 83.479272 279.912678 
L 79.216349 281.664123 
L 78.754245 280.539386 
"/>
    <path clip-path="url(#pd0ca201f6b)" d="M 79.449972 261.057705 
L 83.117684 265.404597 
L 83.654962 264.155777 
L 86.181657 269.978745 
L 80.866912 266.50821 
L 82.188334 266.188741 
L 78.520622 261.84185 
L 79.449972 261.057705 
"/>
    <path clip-path="url(#pd0ca201f6b)" d="M 79.579323 241.668269 
L 80.742482 247.002664 
L 81.801006 246.149585 
L 81.314197 252.47842 
L 78.236854 246.926745 
L 79.554431 247.261718 
L 78.391272 241.927322 
L 79.579323 241.668269 
"/>
    <path clip-path="url(#pd0ca201f6b)" d="M 79.574348 222.296358 
L 77.700311 229.629343 
L 79.028953 229.341371 
L 75.756404 234.780264 
L 75.494646 228.438134 
L 76.522209 229.328264 
L 78.396246 221.995279 
L 79.574348 222.296358 
"/>
    <path clip-path="url(#pd0ca201f6b)" d="M 79.099054 203.091087 
L 73.601428 204.13821 
L 74.426187 205.218946 
L 68.112457 204.564771 
L 73.743649 201.635469 
L 73.373915 202.943717 
L 78.871541 201.896595 
L 79.099054 203.091087 
"/>
    <path clip-path="url(#pd0ca201f6b)" d="M 78.767225 183.409392 
L 72.856159 181.138072 
L 72.987544 182.4912 
L 67.966479 178.607897 
L 74.295975 179.086032 
L 73.292303 180.003016 
L 79.203369 182.274336 
L 78.767225 183.409392 
"/>
    <path clip-path="url(#pd0ca201f6b)" d="M 78.441847 163.462468 
L 75.366719 157.331752 
L 74.552411 158.420383 
L 73.456851 152.168113 
L 77.813109 156.784838 
L 76.453619 156.78657 
L 79.528747 162.917287 
L 78.441847 163.462468 
"/>
    <path clip-path="url(#pd0ca201f6b)" d="M 78.443565 143.261911 
L 81.545093 137.174008 
L 80.18564 137.163761 
L 84.570729 132.574411 
L 83.436031 138.819697 
L 82.628557 137.725987 
L 79.527029 143.813889 
L 78.443565 143.261911 
"/>
    <path clip-path="url(#pd0ca201f6b)" d="M 78.69774 123.350242 
L 84.501109 120.234957 
L 83.390314 119.451151 
L 89.609797 118.182625 
L 85.115656 122.665239 
L 85.076223 121.306319 
L 79.272854 124.421604 
L 78.69774 123.350242 
"/>
    <path clip-path="url(#pd0ca201f6b)" d="M 79.005437 103.626296 
L 83.264562 103.767458 
L 82.697192 102.532019 
L 88.713268 104.556363 
L 82.576355 106.177916 
L 83.224283 104.982756 
L 78.965158 104.841595 
L 79.005437 103.626296 
"/>
    <path clip-path="url(#pd0ca201f6b)" d="M 79.550158 84.357078 
L 81.832923 90.090754 
L 82.737756 89.076113 
L 83.292071 95.399393 
L 79.348589 90.425452 
L 80.703201 90.540534 
L 78.420436 84.806858 
L 79.550158 84.357078 
"/>
    <path clip-path="url(#pd0ca201f6b)" d="M 79.587856 65.011023 
L 78.846119 70.52659 
L 80.132269 70.086096 
L 77.514268 75.868587 
L 76.516916 69.599901 
L 77.641002 70.364525 
L 78.382738 64.848958 
L 79.587856 65.011023 
"/>
    <path clip-path="url(#pd0ca201f6b)" d="M 79.404273 45.718584 
L 75.238473 49.680202 
L 76.516996 50.142367 
L 70.854362 53.010418 
L 74.003138 47.498944 
L 74.40052 48.799061 
L 78.566321 44.837443 
L 79.404273 45.718584 
"/>
    <path clip-path="url(#pd0ca201f6b)" d="M 79.242435 26.176966 
L 73.860801 28.688755 
L 74.926005 29.533478 
L 68.645294 30.452063 
L 73.38318 26.227898 
L 73.346526 27.586896 
L 78.72816 25.075106 
L 79.242435 26.176966 
"/>
    <path clip-path="url(#pd0ca201f6b)" d="M 98.637275 319.797731 
L 102.113371 319.797731 
L 101.505388 318.581765 
L 107.585219 320.405714 
L 101.505388 322.229663 
L 102.113371 321.013697 
L 98.637275 321.013697 
L 98.637275 319.797731 
"/>
    <path clip-path="url(#pd0ca201f6b)" d="M 98.571688 300.149299 
L 107.892645 299.137896 
L 107.157037 297.994612 
L 113.398148 299.152053 
L 107.550556 301.621223 
L 108.023818 300.346766 
L 98.702861 301.35817 
L 98.571688 300.149299 
"/>
    <path clip-path="url(#pd0ca201f6b)" d="M 98.642285 280.493792 
L 109.964602 280.587101 
L 109.36666 279.366166 
L 115.431253 281.240157 
L 109.336598 283.013941 
L 109.954581 281.803026 
L 98.632264 281.709717 
L 98.642285 280.493792 
"/>
    <path clip-path="url(#pd0ca201f6b)" d="M 99.012518 260.97141 
L 100.940025 262.483395 
L 101.212145 261.151416 
L 104.87009 266.338956 
L 98.960682 264.021622 
L 100.189538 263.44013 
L 98.262031 261.928145 
L 99.012518 260.97141 
"/>
    <path clip-path="url(#pd0ca201f6b)" d="M 98.985731 242.056953 
L 98.726574 242.40541 
L 99.682645 242.575268 
L 96.0457 245.282365 
L 97.591904 241.020323 
L 98.02966 241.887095 
L 98.288818 241.538638 
L 98.985731 242.056953 
"/>
    <path clip-path="url(#pd0ca201f6b)" d="M 98.711262 222.749283 
L 93.201899 223.424755 
L 93.953339 224.557697 
L 87.696732 223.487177 
L 93.509414 220.93691 
L 93.053925 222.217826 
L 98.563287 221.542354 
L 98.711262 222.749283 
"/>
    <path clip-path="url(#pd0ca201f6b)" d="M 98.589992 203.099983 
L 88.208153 202.290135 
L 88.719729 203.549701 
L 82.80016 201.258447 
L 89.003426 199.912851 
L 88.302718 201.077851 
L 98.684557 201.887699 
L 98.589992 203.099983 
"/>
    <path clip-path="url(#pd0ca201f6b)" d="M 98.510638 183.436512 
L 92.148175 182.081562 
L 92.489551 183.397495 
L 86.922976 180.347187 
L 93.249368 179.829605 
L 92.401447 180.892265 
L 98.763911 182.247215 
L 98.510638 183.436512 
"/>
    <path clip-path="url(#pd0ca201f6b)" d="M 98.465749 163.583138 
L 98.072488 163.411612 
L 98.122696 164.369658 
L 94.704674 161.474617 
L 99.151853 162.010097 
L 98.415541 162.625091 
L 98.808801 162.796617 
L 98.465749 163.583138 
"/>
    <path clip-path="url(#pd0ca201f6b)" d="M 98.474699 142.952057 
L 105.586938 140.978357 
L 104.675942 139.969246 
L 111.022104 140.101017 
L 105.651398 143.484306 
L 105.91209 142.150044 
L 98.799851 144.123744 
L 98.474699 142.952057 
"/>
    <path clip-path="url(#pd0ca201f6b)" d="M 98.616779 123.278285 
L 109.510601 122.910842 
L 108.861973 121.716062 
L 114.999834 123.334021 
L 108.984945 125.361887 
L 109.551592 124.126117 
L 98.65777 124.49356 
L 98.616779 123.278285 
"/>
    <path clip-path="url(#pd0ca201f6b)" d="M 98.66362 103.626533 
L 108.760503 104.064475 
L 108.205783 102.823305 
L 114.200865 104.908999 
L 108.047708 106.467777 
L 108.707812 105.279299 
L 98.610929 104.841357 
L 98.66362 103.626533 
"/>
    <path clip-path="url(#pd0ca201f6b)" d="M 99.164844 84.454181 
L 99.292631 84.98175 
L 100.219983 84.198606 
L 99.915148 89.857662 
L 97.054566 84.96533 
L 98.237492 85.237325 
L 98.109705 84.709755 
L 99.164844 84.454181 
"/>
    <path clip-path="url(#pd0ca201f6b)" d="M 98.871731 65.490948 
L 96.399308 66.524316 
L 97.429179 67.411775 
L 91.116232 68.073466 
L 96.02244 64.046028 
L 95.930396 65.4024 
L 98.402818 64.369033 
L 98.871731 65.490948 
"/>
    <path clip-path="url(#pd0ca201f6b)" d="M 98.676208 45.884749 
L 89.773325 46.456035 
L 90.457927 47.630572 
L 84.273775 46.199701 
L 90.224327 43.990161 
L 89.695458 45.242565 
L 98.598341 44.671278 
L 98.676208 45.884749 
"/>
    <path clip-path="url(#pd0ca201f6b)" d="M 98.637274 26.234019 
L 86.983822 26.234018 
L 87.591805 27.449984 
L 81.511974 25.626034 
L 87.591805 23.802086 
L 86.983822 25.018052 
L 98.637275 25.018053 
L 98.637274 26.234019 
"/>
    <path clip-path="url(#pd0ca201f6b)" d="M 118.574063 319.868566 
L 119.413061 320.313419 
L 119.445527 318.954316 
L 123.962588 323.413832 
L 117.736684 322.177205 
L 118.843446 321.387716 
L 118.004449 320.942862 
L 118.574063 319.868566 
"/>
    <path clip-path="url(#pd0ca201f6b)" d="M 118.435733 300.16366 
L 125.636354 301.951106 
L 125.339234 300.62448 
L 130.800547 303.859475 
L 124.460371 304.164927 
L 125.3434 303.131255 
L 118.142779 301.343809 
L 118.435733 300.16366 
"/>
    <path clip-path="url(#pd0ca201f6b)" d="M 118.284059 280.493794 
L 129.001806 280.402169 
L 128.38345 279.191444 
L 134.478651 280.963353 
L 128.414634 282.83921 
L 129.0122 281.618091 
L 118.294454 281.709716 
L 118.284059 280.493794 
"/>
    <path clip-path="url(#pd0ca201f6b)" d="M 118.077522 260.879855 
L 121.721647 259.526012 
L 120.728256 258.5979 
L 127.062687 258.190326 
L 121.998661 262.017437 
L 122.145116 260.665857 
L 118.500991 262.0197 
L 118.077522 260.879855 
"/>
    <path clip-path="url(#pd0ca201f6b)" d="M 118.897239 241.797796 
L 118.593248 241.271267 
L 117.985265 241.271267 
L 117.681273 241.797796 
L 117.985265 242.324325 
L 118.593248 242.324325 
L 118.897239 241.797796 
L 118.593248 241.271267 
"/>
    <path clip-path="url(#pd0ca201f6b)" d="M 118.190239 222.745684 
L 115.462825 222.295482 
L 115.864657 223.594231 
L 110.16305 220.80446 
L 116.45876 219.995036 
L 115.66086 221.09575 
L 118.388274 221.545953 
L 118.190239 222.745684 
"/>
    <path clip-path="url(#pd0ca201f6b)" d="M 118.320536 203.101019 
L 107.798018 203.643099 
L 108.467755 204.826175 
L 102.302137 203.317436 
L 108.280078 201.183108 
L 107.735459 202.428743 
L 118.257977 201.886663 
L 118.320536 203.101019 
"/>
    <path clip-path="url(#pd0ca201f6b)" d="M 118.422332 183.435104 
L 110.804632 185.1439 
L 111.664023 186.197306 
L 105.332392 185.748337 
L 110.865572 182.637863 
L 110.538482 183.957419 
L 118.156181 182.248623 
L 118.422332 183.435104 
"/>
    <path clip-path="url(#pd0ca201f6b)" d="M 118.441396 163.778517 
L 117.102688 164.124521 
L 117.995608 165.14966 
L 111.65279 164.905142 
L 117.082767 161.617821 
L 116.798408 162.947241 
L 118.137116 162.601238 
L 118.441396 163.778517 
"/>
    <path clip-path="url(#pd0ca201f6b)" d="M 118.424778 142.945214 
L 123.111153 144.016781 
L 122.789509 142.695886 
L 128.309811 145.829158 
L 121.976381 146.252006 
L 122.84011 145.202154 
L 118.153735 144.130587 
L 118.424778 142.945214 
"/>
    <path clip-path="url(#pd0ca201f6b)" d="M 118.289256 123.27794 
L 128.434441 123.27794 
L 127.826458 122.061974 
L 133.906288 123.885923 
L 127.826458 125.709872 
L 128.434441 124.493906 
L 118.289256 124.493906 
L 118.289256 123.27794 
"/>
    <path clip-path="url(#pd0ca201f6b)" d="M 118.263512 103.626508 
L 128.724412 103.183153 
L 128.065486 101.994022 
L 134.217097 103.558891 
L 128.219952 105.638649 
L 128.775901 104.398029 
L 118.315001 104.841383 
L 118.263512 103.626508 
"/>
    <path clip-path="url(#pd0ca201f6b)" d="M 117.937543 84.161243 
L 118.358268 83.80953 
L 117.234117 83.319793 
L 122.496507 81.064838 
L 119.344395 85.844143 
L 119.061694 84.65098 
L 118.640969 85.002693 
L 117.937543 84.161243 
"/>
    <path clip-path="url(#pd0ca201f6b)" d="M 117.841533 65.341314 
L 117.039939 64.468784 
L 116.555816 65.739155 
L 113.78575 60.02795 
L 119.242156 63.271213 
L 117.935386 63.646137 
L 118.73698 64.518667 
L 117.841533 65.341314 
"/>
    <path clip-path="url(#pd0ca201f6b)" d="M 118.243032 45.884237 
L 111.611211 45.378566 
L 112.124986 46.637237 
L 106.201424 44.356326 
L 112.40233 42.999896 
L 111.703659 44.166119 
L 118.33548 44.67179 
L 118.243032 45.884237 
"/>
    <path clip-path="url(#pd0ca201f6b)" d="M 118.289256 26.234019 
L 108.035779 26.23402 
L 108.643763 27.449986 
L 102.563932 25.626037 
L 108.643762 23.802088 
L 108.035779 25.018054 
L 118.289256 25.018053 
L 118.289256 26.234019 
"/>
    <path clip-path="url(#pd0ca201f6b)" d="M 138.510002 320.190897 
L 138.98966 321.460882 
L 139.912379 320.46248 
L 140.354245 326.794611 
L 136.499771 321.751382 
L 137.852124 321.890516 
L 137.372466 320.620531 
L 138.510002 320.190897 
"/>
    <path clip-path="url(#pd0ca201f6b)" d="M 138.264862 300.239042 
L 142.997175 303.214628 
L 143.12974 301.861615 
L 147.305777 306.641976 
L 141.187969 304.949769 
L 142.349919 304.244013 
L 137.617605 301.268427 
L 138.264862 300.239042 
"/>
    <path clip-path="url(#pd0ca201f6b)" d="M 138.070095 280.507585 
L 145.556274 282.131157 
L 145.219826 280.813955 
L 150.774944 283.885078 
L 144.446658 284.378977 
L 145.298551 283.319497 
L 137.812372 281.695925 
L 138.070095 280.507585 
"/>
    <path clip-path="url(#pd0ca201f6b)" d="M 137.673574 260.903882 
L 143.312209 258.139186 
L 142.230994 257.315055 
L 148.492927 256.276145 
L 143.836952 260.590427 
L 143.847528 259.230977 
L 138.208893 261.995673 
L 137.673574 260.903882 
"/>
    <path clip-path="url(#pd0ca201f6b)" d="M 137.374457 241.577779 
L 138.516777 238.635096 
L 137.163206 238.761838 
L 141.063707 233.754122 
L 140.563867 240.081941 
L 139.650331 239.07513 
L 138.50801 242.017813 
L 137.374457 241.577779 
"/>
    <path clip-path="url(#pd0ca201f6b)" d="M 137.528696 222.592424 
L 136.323685 221.479332 
L 135.945215 222.78508 
L 132.716775 217.319889 
L 138.42044 220.105449 
L 137.14876 220.586122 
L 138.353771 221.699213 
L 137.528696 222.592424 
"/>
    <path clip-path="url(#pd0ca201f6b)" d="M 137.928642 203.101694 
L 128.582046 202.908086 
L 129.164716 204.136382 
L 123.123963 202.186912 
L 129.240263 200.489266 
L 128.607228 201.69238 
L 137.953825 201.885988 
L 137.928642 203.101694 
"/>
    <path clip-path="url(#pd0ca201f6b)" d="M 138.101732 183.42828 
L 130.344246 185.551456 
L 131.251658 186.56379 
L 124.906003 186.409526 
L 130.288668 183.045294 
L 130.023249 184.378624 
L 137.780735 182.255448 
L 138.101732 183.42828 
"/>
    <path clip-path="url(#pd0ca201f6b)" d="M 138.200133 163.739982 
L 134.205858 165.619832 
L 135.273761 166.461142 
L 128.996021 167.39982 
L 133.720366 163.160516 
L 133.68806 164.519624 
L 137.682335 162.639773 
L 138.200133 163.739982 
"/>
    <path clip-path="url(#pd0ca201f6b)" d="M 138.32275 143.06452 
L 140.929386 145.165318 
L 141.21904 143.837042 
L 144.808287 149.072349 
L 138.929939 146.67732 
L 140.166352 146.112078 
L 137.559717 144.01128 
L 138.32275 143.06452 
"/>
    <path clip-path="url(#pd0ca201f6b)" d="M 138.124168 123.306114 
L 145.107247 125.509336 
L 144.893308 124.166783 
L 150.142592 127.735557 
L 143.7957 127.645636 
L 144.741378 126.668953 
L 137.758299 124.465732 
L 138.124168 123.306114 
"/>
    <path clip-path="url(#pd0ca201f6b)" d="M 137.936477 103.625981 
L 148.204984 103.545639 
L 147.587506 102.334467 
L 153.681421 104.110793 
L 147.616047 105.982254 
L 148.214498 104.761568 
L 137.94599 104.84191 
L 137.936477 103.625981 
"/>
    <path clip-path="url(#pd0ca201f6b)" d="M 137.529803 84.134343 
L 140.245743 81.638011 
L 138.975257 81.154192 
L 144.6858 78.382761 
L 141.44384 83.839942 
L 141.068604 82.533262 
L 138.352664 85.029593 
L 137.529803 84.134343 
"/>
    <path clip-path="url(#pd0ca201f6b)" d="M 137.341043 65.027016 
L 136.905947 62.335558 
L 135.80259 63.129801 
L 136.632907 56.836812 
L 139.403737 62.547647 
L 138.106329 62.141507 
L 138.541425 64.832965 
L 137.341043 65.027016 
"/>
    <path clip-path="url(#pd0ca201f6b)" d="M 137.522257 45.718584 
L 133.356456 41.756965 
L 132.959074 43.057083 
L 129.810299 37.545608 
L 135.472932 40.41366 
L 134.194409 40.875825 
L 138.36021 44.837443 
L 137.522257 45.718584 
"/>
    <path clip-path="url(#pd0ca201f6b)" d="M 137.86117 26.228724 
L 129.409105 25.105918 
L 129.851666 26.391359 
L 124.064973 23.782658 
L 130.332048 22.775228 
L 129.569232 23.900542 
L 138.021297 25.023348 
L 137.86117 26.228724 
"/>
    <path clip-path="url(#pd0ca201f6b)" d="M 158.189489 320.286988 
L 159.886026 328.807545 
L 160.959857 327.973816 
L 160.358278 334.292774 
L 157.382188 328.686169 
L 158.69347 329.044996 
L 156.996933 320.52444 
L 158.189489 320.286988 
"/>
    <path clip-path="url(#pd0ca201f6b)" d="M 157.995308 300.297707 
L 161.442043 303.336824 
L 161.790209 302.022671 
L 165.144197 307.411725 
L 159.377627 304.758838 
L 160.637849 304.24888 
L 157.191114 301.209762 
L 157.995308 300.297707 
"/>
    <path clip-path="url(#pd0ca201f6b)" d="M 157.487274 280.503072 
L 158.961251 280.242251 
L 158.150694 279.150823 
L 164.455331 279.887499 
L 158.786318 282.742919 
L 159.173126 281.439616 
L 157.699148 281.700437 
L 157.487274 280.503072 
"/>
    <path clip-path="url(#pd0ca201f6b)" d="M 156.990661 261.368683 
L 158.285971 251.744292 
L 156.999775 252.184652 
L 159.618376 246.402433 
L 160.615078 252.671222 
L 159.491072 251.906482 
L 158.195761 261.530873 
L 156.990661 261.368683 
"/>
    <path clip-path="url(#pd0ca201f6b)" d="M 156.987759 241.85321 
L 156.160754 232.817356 
L 155.005263 233.533636 
L 156.267481 227.312869 
L 158.637978 233.201153 
L 157.371659 232.706528 
L 158.198664 241.742382 
L 156.987759 241.85321 
"/>
    <path clip-path="url(#pd0ca201f6b)" d="M 157.024853 222.361718 
L 154.497583 215.708662 
L 153.576767 216.70882 
L 153.122842 210.377542 
L 156.986914 215.413421 
L 155.634298 215.276863 
L 158.161569 221.929919 
L 157.024853 222.361718 
"/>
    <path clip-path="url(#pd0ca201f6b)" d="M 157.783968 203.071124 
L 153.191637 204.588614 
L 154.150434 205.552422 
L 147.805337 205.728147 
L 153.00589 202.088727 
L 152.810122 203.434049 
L 157.402454 201.916559 
L 157.783968 203.071124 
"/>
    <path clip-path="url(#pd0ca201f6b)" d="M 158.119622 183.146058 
L 154.864879 188.778417 
L 156.221896 188.860395 
L 151.600714 193.211925 
L 153.063428 187.035226 
L 153.812056 188.170027 
L 157.0668 182.537669 
L 158.119622 183.146058 
"/>
    <path clip-path="url(#pd0ca201f6b)" d="M 158.197757 163.25443 
L 157.171849 172.862206 
L 158.445495 172.386765 
L 155.986328 178.238571 
L 154.818217 171.999448 
L 155.962757 172.7331 
L 156.988665 163.125325 
L 158.197757 163.25443 
"/>
    <path clip-path="url(#pd0ca201f6b)" d="M 158.056304 143.14396 
L 162.16509 147.974009 
L 162.697335 146.723037 
L 165.247456 152.535783 
L 159.918779 149.086676 
L 161.238904 148.761889 
L 157.130118 143.93184 
L 158.056304 143.14396 
"/>
    <path clip-path="url(#pd0ca201f6b)" d="M 157.753923 123.299565 
L 160.847036 124.147343 
L 160.582103 122.813916 
L 165.96354 126.18011 
L 159.61783 126.332061 
L 160.525611 125.320058 
L 157.432499 124.47228 
L 157.753923 123.299565 
"/>
    <path clip-path="url(#pd0ca201f6b)" d="M 157.178855 103.789027 
L 159.53396 101.595703 
L 158.26033 101.120221 
L 163.952586 98.311421 
L 160.746464 103.789734 
L 160.362672 102.485541 
L 158.007567 104.678864 
L 157.178855 103.789027 
"/>
    <path clip-path="url(#pd0ca201f6b)" d="M 156.986219 84.54726 
L 157.463618 76.198237 
L 156.214927 76.735813 
L 158.382981 70.770021 
L 159.856877 76.94406 
L 158.677602 76.267653 
L 158.200203 84.616676 
L 156.986219 84.54726 
"/>
    <path clip-path="url(#pd0ca201f6b)" d="M 157.009983 65.101714 
L 154.708079 57.283722 
L 153.713347 58.210397 
L 153.745793 51.86295 
L 157.212713 57.180055 
L 155.874534 56.940274 
L 158.176439 64.758267 
L 157.009983 65.101714 
"/>
    <path clip-path="url(#pd0ca201f6b)" d="M 157.101167 45.635135 
L 154.446253 41.977184 
L 153.819287 43.183472 
L 151.724199 37.191666 
L 156.771551 41.04074 
L 155.430341 41.26294 
L 158.085255 44.920891 
L 157.101167 45.635135 
"/>
    <path clip-path="url(#pd0ca201f6b)" d="M 157.593211 26.155237 
L 157.06401 26.155237 
L 157.593211 27.213639 
L 152.301202 25.626035 
L 157.593211 24.038433 
L 157.06401 25.096835 
L 157.593211 25.096835 
L 157.593211 26.155237 
"/>
    <path clip-path="url(#pd0ca201f6b)" d="M 177.853171 320.405714 
L 177.853171 330.097388 
L 179.069137 329.489405 
L 177.245188 335.569236 
L 175.421239 329.489405 
L 176.637205 330.097388 
L 176.637205 320.405714 
L 177.853171 320.405714 
"/>
    <path clip-path="url(#pd0ca201f6b)" d="M 177.804675 300.515788 
L 179.728325 305.038898 
L 180.609351 304.003519 
L 181.310353 310.312222 
L 177.252433 305.431195 
L 178.609352 305.51479 
L 176.685702 300.991681 
L 177.804675 300.515788 
"/>
    <path clip-path="url(#pd0ca201f6b)" d="M 177.404278 280.768725 
L 177.737308 280.927814 
L 177.722458 280.102664 
L 180.575491 282.692653 
L 176.767919 282.100846 
L 177.419129 281.593875 
L 177.086099 281.434785 
L 177.404278 280.768725 
"/>
    <path clip-path="url(#pd0ca201f6b)" d="M 176.640459 261.386962 
L 177.50223 253.090606 
L 176.229956 253.569705 
L 178.672297 247.710857 
L 179.858332 253.946596 
L 178.711689 253.216236 
L 177.849918 261.512593 
L 176.640459 261.386962 
"/>
    <path clip-path="url(#pd0ca201f6b)" d="M 176.637224 241.793039 
L 176.717567 231.524532 
L 175.496881 232.122983 
L 177.368342 226.057609 
L 179.144668 232.151524 
L 177.933495 231.534046 
L 177.853153 241.802553 
L 176.637224 241.793039 
"/>
    <path clip-path="url(#pd0ca201f6b)" d="M 176.640391 222.20798 
L 175.778265 213.819946 
L 174.630832 214.549065 
L 175.82361 208.314611 
L 178.259614 214.176097 
L 176.987859 213.695623 
L 177.849985 222.083657 
L 176.640391 222.20798 
"/>
    <path clip-path="url(#pd0ca201f6b)" d="M 177.343943 202.661608 
L 177.176177 202.760362 
L 177.541453 202.997141 
L 175.567522 203.481389 
L 176.948924 201.990541 
L 176.978667 202.424829 
L 177.146434 202.326074 
L 177.343943 202.661608 
"/>
    <path clip-path="url(#pd0ca201f6b)" d="M 177.795293 183.100763 
L 175.915443 187.095035 
L 177.274551 187.062729 
L 173.035247 191.787074 
L 173.973925 185.509334 
L 174.815234 186.577237 
L 176.695084 182.582965 
L 177.795293 183.100763 
"/>
    <path clip-path="url(#pd0ca201f6b)" d="M 177.849319 163.258209 
L 176.805169 172.489691 
L 178.081763 172.022224 
L 175.586052 177.858538 
L 174.456977 171.612233 
L 175.596907 172.353028 
L 176.641057 163.121546 
L 177.849319 163.258209 
"/>
    <path clip-path="url(#pd0ca201f6b)" d="M 177.852601 143.511576 
L 178.16079 150.622848 
L 179.349292 149.962787 
L 177.790294 156.115889 
L 175.704814 150.120732 
L 176.945964 150.675497 
L 176.637775 143.564224 
L 177.852601 143.511576 
"/>
    <path clip-path="url(#pd0ca201f6b)" d="M 177.691794 123.473385 
L 178.804884 124.678397 
L 179.285558 123.406717 
L 182.071115 129.110383 
L 176.605925 125.881941 
L 177.911674 125.503472 
L 176.798583 124.29846 
L 177.691794 123.473385 
"/>
    <path clip-path="url(#pd0ca201f6b)" d="M 176.903905 103.896744 
L 177.241106 103.555461 
L 176.221337 103.222342 
L 180.617198 100.821107 
L 178.26904 105.245548 
L 177.923673 104.229863 
L 177.586472 104.571146 
L 176.903905 103.896744 
"/>
    <path clip-path="url(#pd0ca201f6b)" d="M 176.638515 84.54209 
L 177.316466 74.228294 
L 176.06324 74.755212 
L 178.282043 68.808108 
L 179.703283 74.994481 
L 178.529813 74.30805 
L 177.851862 84.621846 
L 176.638515 84.54209 
"/>
    <path clip-path="url(#pd0ca201f6b)" d="M 176.640045 64.988683 
L 175.705001 55.348041 
L 174.553407 56.07057 
L 175.78191 49.843058 
L 178.184268 55.718414 
L 176.915288 55.230656 
L 177.850332 64.871298 
L 176.640045 64.988683 
"/>
    <path clip-path="url(#pd0ca201f6b)" d="M 176.650946 45.406541 
L 175.502793 40.098096 
L 174.442836 40.949393 
L 174.940288 34.621386 
L 178.00829 40.178228 
L 176.691278 39.841041 
L 177.839431 45.149486 
L 176.650946 45.406541 
"/>
    <path clip-path="url(#pd0ca201f6b)" d="M 176.961522 25.776442 
L 176.811116 25.492775 
L 176.394188 26.077254 
L 175.741129 22.789368 
L 178.096189 25.174818 
L 177.378449 25.191963 
L 177.528855 25.47563 
L 176.961522 25.776442 
"/>
    <path clip-path="url(#pd0ca201f6b)" d="M 197.504157 320.44058 
L 196.89626 331.023626 
L 198.14509 330.486374 
L 195.975488 336.451604 
L 194.503195 330.277181 
L 195.682295 330.953895 
L 196.290192 320.370849 
L 197.504157 320.44058 
"/>
    <path clip-path="url(#pd0ca201f6b)" d="M 197.492363 300.877809 
L 196.11561 307.482114 
L 197.430061 307.135075 
L 194.40375 312.714732 
L 193.858932 306.390627 
L 194.925234 307.233964 
L 196.301986 300.62966 
L 197.492363 300.877809 
"/>
    <path clip-path="url(#pd0ca201f6b)" d="M 197.308499 281.549478 
L 196.435966 282.351076 
L 197.706338 282.835197 
L 191.995136 285.60527 
L 195.238393 280.148859 
L 195.613318 281.45563 
L 196.48585 280.654032 
L 197.308499 281.549478 
"/>
    <path clip-path="url(#pd0ca201f6b)" d="M 196.290196 261.484719 
L 195.929619 255.221078 
L 194.750604 255.89794 
L 196.222121 249.723333 
L 198.392474 255.68829 
L 197.143575 255.151195 
L 197.504153 261.414836 
L 196.290196 261.484719 
"/>
    <path clip-path="url(#pd0ca201f6b)" d="M 196.289389 241.813294 
L 196.029765 231.631474 
L 194.829691 232.270255 
L 196.49807 226.145907 
L 198.476404 232.177269 
L 197.245336 231.600479 
L 197.50496 241.782298 
L 196.289389 241.813294 
"/>
    <path clip-path="url(#pd0ca201f6b)" d="M 196.293124 222.076781 
L 197.369314 212.660553 
L 196.092175 213.126529 
L 198.594703 207.293135 
L 199.716479 213.540754 
L 198.577416 212.798629 
L 197.501225 222.214856 
L 196.293124 222.076781 
"/>
    <path clip-path="url(#pd0ca201f6b)" d="M 196.671112 202.322315 
L 196.842638 202.096252 
L 196.218987 201.979263 
L 198.612436 200.233215 
L 197.575362 203.008419 
L 197.294763 202.439305 
L 197.123237 202.665367 
L 196.671112 202.322315 
"/>
    <path clip-path="url(#pd0ca201f6b)" d="M 197.449498 182.587734 
L 198.124933 184.055721 
L 198.975451 182.995138 
L 199.859775 189.280765 
L 195.661508 184.519915 
L 197.020286 184.56398 
L 196.344851 183.095993 
L 197.449498 182.587734 
"/>
    <path clip-path="url(#pd0ca201f6b)" d="M 197.505158 163.189878 
L 197.505157 171.341681 
L 198.721123 170.733698 
L 196.897174 176.813528 
L 195.073225 170.733697 
L 196.289191 171.341681 
L 196.289191 163.189878 
L 197.505158 163.189878 
"/>
    <path clip-path="url(#pd0ca201f6b)" d="M 197.502531 143.594352 
L 196.66924 152.530112 
L 197.936405 152.037659 
L 195.555819 157.92187 
L 194.304265 151.698949 
L 195.458527 152.417209 
L 196.291818 143.481449 
L 197.502531 143.594352 
"/>
    <path clip-path="url(#pd0ca201f6b)" d="M 197.46522 124.102644 
L 196.332066 127.072744 
L 197.684877 126.93814 
L 193.813532 131.96843 
L 194.276605 125.637814 
L 195.195975 126.639302 
L 196.329129 123.669202 
L 197.46522 124.102644 
"/>
    <path clip-path="url(#pd0ca201f6b)" d="M 196.859273 104.745375 
L 196.347843 104.707473 
L 196.783468 105.768234 
L 191.782879 103.854925 
L 197.010881 102.699657 
L 196.423647 103.684614 
L 196.935077 103.722516 
L 196.859273 104.745375 
"/>
    <path clip-path="url(#pd0ca201f6b)" d="M 196.289219 84.587712 
L 196.202513 75.410572 
L 194.992345 76.030016 
L 196.758773 69.933225 
L 198.640081 75.995552 
L 197.418425 75.399084 
L 197.50513 84.576224 
L 196.289219 84.587712 
"/>
    <path clip-path="url(#pd0ca201f6b)" d="M 196.289716 64.904747 
L 196.724956 54.431418 
L 195.484794 54.988389 
L 197.559612 48.989533 
L 199.129547 55.139853 
L 197.939873 54.481906 
L 197.504633 64.955235 
L 196.289716 64.904747 
"/>
    <path clip-path="url(#pd0ca201f6b)" d="M 196.3071 45.131536 
L 198.094546 37.930909 
L 196.76792 38.22803 
L 200.002914 32.766716 
L 200.308367 39.106892 
L 199.274695 38.223863 
L 197.487249 45.42449 
L 196.3071 45.131536 
"/>
    <path clip-path="url(#pd0ca201f6b)" d="M 196.314148 25.453629 
L 196.526488 24.735562 
L 195.18803 24.973774 
L 198.661174 19.660734 
L 198.686186 26.008214 
L 197.69254 25.080375 
L 197.480201 25.798443 
L 196.314148 25.453629 
"/>
    <path clip-path="url(#pd0ca201f6b)" d="M 217.013898 320.797702 
L 213.302757 325.197669 
L 214.624237 325.516901 
L 209.310116 328.988391 
L 211.835763 323.16497 
L 212.373266 324.413693 
L 216.084406 320.013726 
L 217.013898 320.797702 
"/>
    <path clip-path="url(#pd0ca201f6b)" d="M 216.848759 301.282771 
L 211.515977 304.30286 
L 212.644226 305.061326 
L 206.455044 306.470284 
L 210.846586 301.887109 
L 210.916763 303.244788 
L 216.249545 300.224698 
L 216.848759 301.282771 
"/>
    <path clip-path="url(#pd0ca201f6b)" d="M 216.506209 281.70822 
L 209.411438 281.205853 
L 209.932017 282.461724 
L 203.996198 280.212905 
L 210.189673 278.822937 
L 209.497323 279.992923 
L 216.592094 280.49529 
L 216.506209 281.70822 
"/>
    <path clip-path="url(#pd0ca201f6b)" d="M 216.020976 261.750899 
L 213.429119 257.204708 
L 212.67389 258.335126 
L 211.247202 252.150007 
L 215.842943 256.528398 
L 214.48547 256.602465 
L 217.077327 261.148656 
L 216.020976 261.750899 
"/>
    <path clip-path="url(#pd0ca201f6b)" d="M 215.947249 241.712025 
L 216.94754 234.692403 
L 215.657964 235.122764 
L 218.321378 229.361049 
L 219.26938 235.637388 
L 218.151345 234.863944 
L 217.151055 241.883566 
L 215.947249 241.712025 
"/>
    <path clip-path="url(#pd0ca201f6b)" d="M 216.108208 221.727235 
L 220.518658 217.081177 
L 219.218187 216.684955 
L 224.726851 213.531265 
L 221.863851 219.196454 
L 221.400546 217.918344 
L 216.990096 222.564402 
L 216.108208 221.727235 
"/>
    <path clip-path="url(#pd0ca201f6b)" d="M 216.653623 201.894901 
L 224.735015 203.304516 
L 224.345018 202.002164 
L 230.021004 204.843699 
L 223.718189 205.595804 
L 224.526072 204.502396 
L 216.44468 203.092781 
L 216.653623 201.894901 
"/>
    <path clip-path="url(#pd0ca201f6b)" d="M 217.001128 182.435218 
L 221.352049 187.271156 
L 221.849356 186.005888 
L 224.559884 191.745589 
L 219.137497 188.445762 
L 220.448096 188.084447 
L 216.097175 183.248509 
L 217.001128 182.435218 
"/>
    <path clip-path="url(#pd0ca201f6b)" d="M 217.136581 163.033127 
L 218.665319 168.762133 
L 219.683426 167.861203 
L 219.488645 174.205743 
L 216.158853 168.801706 
L 217.490461 169.075634 
L 215.961723 163.346628 
L 217.136581 163.033127 
"/>
    <path clip-path="url(#pd0ca201f6b)" d="M 217.012245 143.93184 
L 212.90346 148.761888 
L 214.223585 149.086675 
L 208.89491 152.535783 
L 211.445029 146.723037 
L 211.977275 147.974009 
L 216.086059 143.14396 
L 217.012245 143.93184 
"/>
    <path clip-path="url(#pd0ca201f6b)" d="M 216.654561 124.484699 
L 210.854135 125.50581 
L 211.663729 126.597952 
L 205.359745 125.855714 
L 211.031275 123.005298 
L 210.643318 124.308258 
L 216.443743 123.287147 
L 216.654561 124.484699 
"/>
    <path clip-path="url(#pd0ca201f6b)" d="M 216.336839 104.803653 
L 209.830926 102.379095 
L 209.976007 103.730822 
L 204.915871 99.898571 
L 211.249885 100.312577 
L 210.255551 101.239679 
L 216.761465 103.664238 
L 216.336839 104.803653 
"/>
    <path clip-path="url(#pd0ca201f6b)" d="M 215.944705 84.647444 
L 215.446962 80.052499 
L 214.303544 80.787898 
L 215.462125 74.546999 
L 217.930227 80.395042 
L 216.655857 79.921547 
L 217.153599 84.516492 
L 215.944705 84.647444 
"/>
    <path clip-path="url(#pd0ca201f6b)" d="M 215.996475 64.676631 
L 218.85944 58.431374 
L 217.500726 58.477332 
L 221.692355 53.710637 
L 220.81679 59.99749 
L 219.964795 58.938093 
L 217.101829 65.18335 
L 215.996475 64.676631 
"/>
    <path clip-path="url(#pd0ca201f6b)" d="M 216.255606 44.745591 
L 222.200048 41.468177 
L 221.080533 40.696878 
L 227.285399 39.358683 
L 222.841811 43.891415 
L 222.787141 42.533023 
L 216.842698 45.810436 
L 216.255606 44.745591 
"/>
    <path clip-path="url(#pd0ca201f6b)" d="M 216.549152 25.018053 
L 224.93196 25.018051 
L 224.323977 23.802085 
L 230.403808 25.626033 
L 224.323978 27.449983 
L 224.93196 26.234017 
L 216.549152 26.234019 
L 216.549152 25.018053 
"/>
    <path clip-path="url(#pd0ca201f6b)" d="M 236.654942 320.81031 
L 234.622974 323.089454 
L 235.935194 323.444833 
L 230.527799 326.769169 
L 233.21232 321.017258 
L 233.715349 322.280262 
L 235.747317 320.001118 
L 236.654942 320.81031 
"/>
    <path clip-path="url(#pd0ca201f6b)" d="M 236.347607 301.343809 
L 229.146986 303.131257 
L 230.030015 304.164928 
L 223.689839 303.859478 
L 229.151151 300.624482 
L 228.854032 301.951108 
L 236.054652 300.16366 
L 236.347607 301.343809 
"/>
    <path clip-path="url(#pd0ca201f6b)" d="M 236.249236 281.707832 
L 227.572775 282.39651 
L 228.275064 283.560557 
L 222.069977 282.223389 
L 227.986427 279.924096 
L 227.476563 281.184356 
L 236.153023 280.495678 
L 236.249236 281.707832 
"/>
    <path clip-path="url(#pd0ca201f6b)" d="M 235.865184 261.956516 
L 232.534402 259.748357 
L 232.369251 261.09778 
L 228.309698 256.218111 
L 234.384922 258.057347 
L 233.206293 258.734879 
L 236.537075 260.943039 
L 235.865184 261.956516 
"/>
    <path clip-path="url(#pd0ca201f6b)" d="M 235.6897 241.835699 
L 235.651797 241.324269 
L 234.66684 241.911505 
L 235.8221 236.683499 
L 237.735418 241.684087 
L 236.674656 241.248463 
L 236.712559 241.759893 
L 235.6897 241.835699 
"/>
    <path clip-path="url(#pd0ca201f6b)" d="M 235.772436 221.714697 
L 239.139965 218.366136 
L 237.851458 217.932586 
L 243.448751 214.939019 
L 240.423616 220.519314 
L 239.997351 219.228378 
L 236.629822 222.57694 
L 235.772436 221.714697 
"/>
    <path clip-path="url(#pd0ca201f6b)" d="M 236.192458 201.88592 
L 245.671429 201.750706 
L 245.046164 200.543535 
L 251.151392 202.280581 
L 245.098195 204.191063 
L 245.688773 202.966548 
L 236.209801 203.101762 
L 236.192458 201.88592 
"/>
    <path clip-path="url(#pd0ca201f6b)" d="M 236.334205 182.248623 
L 243.951904 183.95742 
L 243.624814 182.637863 
L 249.157994 185.748338 
L 242.826362 186.197307 
L 243.685753 185.143901 
L 236.068054 183.435104 
L 236.334205 182.248623 
"/>
    <path clip-path="url(#pd0ca201f6b)" d="M 236.684399 162.820968 
L 238.975278 165.822009 
L 239.572908 164.600921 
L 241.812193 170.540343 
L 236.673291 166.814377 
L 238.00874 166.559828 
L 235.71786 163.558787 
L 236.684399 162.820968 
"/>
    <path clip-path="url(#pd0ca201f6b)" d="M 236.500664 144.066977 
L 231.578696 146.853531 
L 232.706842 147.61215 
L 226.51747 149.020268 
L 230.909633 144.437689 
L 230.979626 145.795377 
L 235.901594 143.008823 
L 236.500664 144.066977 
"/>
    <path clip-path="url(#pd0ca201f6b)" d="M 236.351669 124.474974 
L 229.018685 126.349014 
L 229.908816 127.376576 
L 223.566685 127.11482 
L 229.005578 123.842269 
L 228.717606 125.170911 
L 236.05059 123.296872 
L 236.351669 124.474974 
"/>
    <path clip-path="url(#pd0ca201f6b)" d="M 236.138479 104.838692 
L 227.737376 103.968353 
L 228.216821 105.240497 
L 222.357308 102.799751 
L 228.592725 101.612018 
L 227.862677 102.75886 
L 236.26378 103.629199 
L 236.138479 104.838692 
"/>
    <path clip-path="url(#pd0ca201f6b)" d="M 235.673453 84.883963 
L 234.824966 83.4014 
L 234.071608 84.533066 
L 232.634688 78.350316 
L 237.237667 82.721097 
L 235.880319 82.79741 
L 236.728806 84.279973 
L 235.673453 84.883963 
"/>
    <path clip-path="url(#pd0ca201f6b)" d="M 235.753406 64.518667 
L 236.555 63.646136 
L 235.24823 63.271212 
L 240.704636 60.027948 
L 237.934571 65.739154 
L 237.450447 64.468783 
L 236.648853 65.341314 
L 235.753406 64.518667 
"/>
    <path clip-path="url(#pd0ca201f6b)" d="M 235.915907 44.741085 
L 241.746878 41.643612 
L 240.639506 40.854977 
L 246.864454 39.613543 
L 242.350838 44.076546 
L 242.317322 42.717468 
L 236.486351 45.814942 
L 235.915907 44.741085 
"/>
    <path clip-path="url(#pd0ca201f6b)" d="M 236.129589 25.022277 
L 245.491519 23.912976 
L 244.74468 22.776997 
L 250.996894 23.872877 
L 245.173919 26.399554 
L 245.634598 25.120495 
L 236.272669 26.229795 
L 236.129589 25.022277 
"/>
    <path clip-path="url(#pd0ca201f6b)" d="M 256.205907 320.703979 
L 255.907643 321.056779 
L 256.911509 321.300508 
L 252.870461 323.933722 
L 254.794704 319.51092 
L 255.202041 320.46025 
L 255.500306 320.107449 
L 256.205907 320.703979 
"/>
    <path clip-path="url(#pd0ca201f6b)" d="M 255.936171 301.356017 
L 250.451145 302.112494 
L 251.219557 303.233993 
L 244.947541 302.257795 
L 250.721168 299.620301 
L 250.285015 300.90793 
L 255.770042 300.151452 
L 255.936171 301.356017 
"/>
    <path clip-path="url(#pd0ca201f6b)" d="M 255.853107 281.709738 
L 245.461616 281.709737 
L 246.069599 282.925703 
L 239.989768 281.101754 
L 246.069599 279.277805 
L 245.461616 280.493771 
L 255.853107 280.493772 
L 255.853107 281.709738 
"/>
    <path clip-path="url(#pd0ca201f6b)" d="M 255.740166 262.047178 
L 250.147872 260.989936 
L 250.519391 262.297678 
L 244.884205 259.376068 
L 251.197036 258.713273 
L 250.373754 259.795134 
L 255.966047 260.852377 
L 255.740166 262.047178 
"/>
    <path clip-path="url(#pd0ca201f6b)" d="M 255.690134 242.134709 
L 255.353221 241.971737 
L 255.364189 242.808536 
L 252.483971 240.16807 
L 256.342024 240.787055 
L 255.679166 241.29791 
L 256.016079 241.460882 
L 255.690134 242.134709 
"/>
    <path clip-path="url(#pd0ca201f6b)" d="M 255.853107 221.596486 
L 256.402439 221.596486 
L 255.853106 220.497822 
L 261.346427 222.145818 
L 255.853107 223.793814 
L 256.402439 222.69515 
L 255.853107 222.69515 
L 255.853107 221.596486 
"/>
    <path clip-path="url(#pd0ca201f6b)" d="M 255.811458 201.887286 
L 266.229826 201.171912 
L 265.539973 200.000451 
L 271.730468 201.403627 
L 265.789867 203.63978 
L 266.313124 202.385022 
L 255.894756 203.100396 
L 255.811458 201.887286 
"/>
    <path clip-path="url(#pd0ca201f6b)" d="M 255.869941 182.234114 
L 265.266413 182.494399 
L 264.692332 181.262064 
L 270.719327 183.253662 
L 264.591323 184.908564 
L 265.232743 183.709899 
L 255.836272 183.449614 
L 255.869941 182.234114 
"/>
    <path clip-path="url(#pd0ca201f6b)" d="M 256.112005 162.639773 
L 260.106281 164.519622 
L 260.073974 163.160515 
L 264.798321 167.399816 
L 258.520581 166.461141 
L 259.588483 165.619831 
L 255.594208 163.739982 
L 256.112005 162.639773 
"/>
    <path clip-path="url(#pd0ca201f6b)" d="M 256.096087 144.095219 
L 253.415897 145.263729 
L 254.459176 146.135387 
L 248.157049 146.893232 
L 253.001295 142.791475 
L 252.929937 144.149092 
L 255.610127 142.980581 
L 256.096087 144.095219 
"/>
    <path clip-path="url(#pd0ca201f6b)" d="M 255.902318 124.491911 
L 247.249056 125.194634 
L 247.953467 126.357399 
L 241.745951 125.031552 
L 247.658197 122.72147 
L 247.150632 123.982658 
L 255.803895 123.279935 
L 255.902318 124.491911 
"/>
    <path clip-path="url(#pd0ca201f6b)" d="M 255.84835 104.84191 
L 245.579843 104.761569 
L 246.178294 105.982255 
L 240.112919 104.110794 
L 246.206834 102.334468 
L 245.589356 103.54564 
L 255.857863 103.625981 
L 255.84835 104.84191 
"/>
    <path clip-path="url(#pd0ca201f6b)" d="M 255.618683 85.14294 
L 253.837325 84.398532 
L 253.92945 85.754898 
L 249.023003 81.727751 
L 255.33599 82.389068 
L 254.306171 83.276588 
L 256.08753 84.020996 
L 255.618683 85.14294 
"/>
    <path clip-path="url(#pd0ca201f6b)" d="M 255.67725 64.758217 
L 255.849024 64.582361 
L 255.325537 64.41467 
L 257.570842 63.171425 
L 256.380676 65.445311 
L 256.200737 64.925908 
L 256.028963 65.101764 
L 255.67725 64.758217 
"/>
    <path clip-path="url(#pd0ca201f6b)" d="M 255.853107 44.67003 
L 260.431646 44.67003 
L 259.823663 43.454064 
L 265.903494 45.278012 
L 259.823664 47.101962 
L 260.431647 45.885996 
L 255.853107 45.885996 
L 255.853107 44.67003 
"/>
    <path clip-path="url(#pd0ca201f6b)" d="M 255.778785 25.022613 
L 265.314448 23.848132 
L 264.562381 22.715607 
L 270.819579 23.782657 
L 265.008312 26.336147 
L 265.463092 25.054978 
L 255.927429 26.229459 
L 255.778785 25.022613 
"/>
    <path clip-path="url(#pd0ca201f6b)" d="M 275.040338 320.797703 
L 271.329198 316.397737 
L 270.791695 317.64646 
L 268.266047 311.823039 
L 273.580169 315.294529 
L 272.258689 315.61376 
L 275.96983 320.013725 
L 275.040338 320.797703 
"/>
    <path clip-path="url(#pd0ca201f6b)" d="M 275.37071 301.346682 
L 266.917752 299.431074 
L 267.241952 300.751343 
L 261.715595 297.628762 
L 268.048195 297.193656 
L 267.1865 298.245178 
L 275.639458 300.160787 
L 275.37071 301.346682 
"/>
    <path clip-path="url(#pd0ca201f6b)" d="M 275.532706 281.70911 
L 266.378631 282.125427 
L 267.04123 283.312516 
L 260.884811 281.766668 
L 266.875499 279.668384 
L 266.323387 280.910716 
L 275.477462 280.4944 
L 275.532706 281.70911 
"/>
    <path clip-path="url(#pd0ca201f6b)" d="M 276.033259 261.750899 
L 273.441403 266.297089 
L 274.798875 266.371156 
L 270.203135 270.749547 
L 271.629823 264.564428 
L 272.385052 265.694846 
L 274.976909 261.148656 
L 276.033259 261.750899 
"/>
    <path clip-path="url(#pd0ca201f6b)" d="M 276.077835 241.593835 
L 276.663216 243.237671 
L 277.604757 242.256999 
L 277.926109 248.59639 
L 274.168252 243.480762 
L 275.517714 243.645592 
L 274.932333 242.001756 
L 276.077835 241.593835 
"/>
    <path clip-path="url(#pd0ca201f6b)" d="M 275.845785 221.642265 
L 280.83827 225.020145 
L 281.016118 223.672337 
L 285.029552 228.590007 
L 278.971912 226.693659 
L 280.156868 226.027253 
L 275.164383 222.649372 
L 275.845785 221.642265 
"/>
    <path clip-path="url(#pd0ca201f6b)" d="M 275.400612 201.894901 
L 283.482006 200.485285 
L 282.674123 199.391877 
L 288.976938 200.143982 
L 283.300952 202.985517 
L 283.690949 201.683165 
L 275.609556 203.092781 
L 275.400612 201.894901 
"/>
    <path clip-path="url(#pd0ca201f6b)" d="M 275.258009 182.286348 
L 281.201771 179.642765 
L 280.152106 178.778808 
L 286.448486 177.974609 
L 281.634553 182.111902 
L 281.69592 180.753796 
L 275.752159 183.397379 
L 275.258009 182.286348 
"/>
    <path clip-path="url(#pd0ca201f6b)" d="M 274.943628 162.956616 
L 276.267866 159.769203 
L 274.911693 159.864135 
L 278.928675 154.949363 
L 278.280427 161.263704 
L 277.390777 160.235725 
L 276.06654 163.423139 
L 274.943628 162.956616 
"/>
    <path clip-path="url(#pd0ca201f6b)" d="M 275.342508 144.123744 
L 268.23027 142.150043 
L 268.490961 143.484306 
L 263.120256 140.101015 
L 269.466418 139.969245 
L 268.555422 140.978356 
L 275.66766 142.952057 
L 275.342508 144.123744 
"/>
    <path clip-path="url(#pd0ca201f6b)" d="M 275.462361 124.492403 
L 265.634917 123.800118 
L 266.155951 125.055801 
L 260.219318 122.809131 
L 266.412289 121.41692 
L 265.720363 122.587157 
L 275.547807 123.279443 
L 275.462361 124.492403 
"/>
    <path clip-path="url(#pd0ca201f6b)" d="M 275.646613 104.825226 
L 267.419002 106.794583 
L 268.29334 107.835616 
L 261.955946 107.47706 
L 267.444168 104.287931 
L 267.135945 105.612021 
L 275.363555 103.642665 
L 275.646613 104.825226 
"/>
    <path clip-path="url(#pd0ca201f6b)" d="M 276.032653 84.709756 
L 275.904866 85.237325 
L 277.087792 84.965331 
L 274.227209 89.857663 
L 273.922376 84.198606 
L 274.849727 84.98175 
L 274.977515 84.454181 
L 276.032653 84.709756 
"/>
    <path clip-path="url(#pd0ca201f6b)" d="M 275.904899 64.471961 
L 278.808727 67.006722 
L 279.150329 65.690847 
L 282.531178 71.06309 
L 276.751436 68.439024 
L 278.009096 67.922781 
L 275.105269 65.38802 
L 275.904899 64.471961 
"/>
    <path clip-path="url(#pd0ca201f6b)" d="M 275.708032 44.704903 
L 283.054415 47.306376 
L 282.8872 45.957207 
L 288.009462 49.706015 
L 281.669514 49.39587 
L 282.64852 48.452597 
L 275.302136 45.851124 
L 275.708032 44.704903 
"/>
    <path clip-path="url(#pd0ca201f6b)" d="M 275.505084 25.018053 
L 283.887896 25.018053 
L 283.279913 23.802087 
L 289.359743 25.626037 
L 283.279913 27.449986 
L 283.887896 26.234019 
L 275.505084 26.234019 
L 275.505084 25.018053 
"/>
    <path clip-path="url(#pd0ca201f6b)" d="M 294.576705 320.586906 
L 292.701119 314.579417 
L 291.721599 315.522157 
L 291.650749 309.175023 
L 295.203734 314.435006 
L 293.861831 314.217034 
L 295.737417 320.224522 
L 294.576705 320.586906 
"/>
    <path clip-path="url(#pd0ca201f6b)" d="M 294.716491 301.172711 
L 290.754874 297.006909 
L 290.292709 298.285432 
L 287.424658 292.622798 
L 292.936132 295.771575 
L 291.636015 296.168957 
L 295.597632 300.334758 
L 294.716491 301.172711 
"/>
    <path clip-path="url(#pd0ca201f6b)" d="M 295.111945 281.708062 
L 288.504871 281.216417 
L 289.020945 282.474147 
L 283.093226 280.204063 
L 289.291643 278.836306 
L 288.595104 280.003804 
L 295.202178 280.495448 
L 295.111945 281.708062 
"/>
    <path clip-path="url(#pd0ca201f6b)" d="M 295.678382 261.762616 
L 292.189653 267.576301 
L 293.545133 267.680659 
L 288.852782 271.955349 
L 290.417209 265.803625 
L 291.147011 266.950624 
L 294.635741 261.136939 
L 295.678382 261.762616 
"/>
    <path clip-path="url(#pd0ca201f6b)" d="M 295.764711 241.817935 
L 295.623548 246.077061 
L 296.858987 245.509691 
L 294.834642 251.525766 
L 293.21309 245.388853 
L 294.408249 246.036782 
L 294.549412 241.777656 
L 295.764711 241.817935 
"/>
    <path clip-path="url(#pd0ca201f6b)" d="M 295.671638 221.822006 
L 298.658182 226.56798 
L 299.363523 225.405778 
L 301.057918 231.52298 
L 296.276064 227.348653 
L 297.629029 227.215605 
L 294.642485 222.469631 
L 295.671638 221.822006 
"/>
    <path clip-path="url(#pd0ca201f6b)" d="M 295.095051 201.889029 
L 300.569178 201.327775 
L 299.840344 200.18016 
L 306.0745 201.374493 
L 300.212407 203.809035 
L 300.693199 202.5374 
L 295.219072 203.098654 
L 295.095051 201.889029 
"/>
    <path clip-path="url(#pd0ca201f6b)" d="M 294.73826 182.401127 
L 298.779415 178.561093 
L 297.501076 178.098422 
L 303.164844 175.232614 
L 300.013886 180.74284 
L 299.617019 179.442565 
L 295.575863 183.2826 
L 294.73826 182.401127 
"/>
    <path clip-path="url(#pd0ca201f6b)" d="M 294.614644 162.915238 
L 297.26985 157.671171 
L 295.910376 157.664309 
L 300.284025 153.064056 
L 299.164879 159.312148 
L 298.354684 158.220451 
L 295.699479 163.464517 
L 294.614644 162.915238 
"/>
    <path clip-path="url(#pd0ca201f6b)" d="M 294.661456 143.890063 
L 291.300985 139.160811 
L 290.661937 140.360742 
L 288.627124 134.348199 
L 293.635569 138.247764 
L 292.292196 138.456485 
L 295.652667 143.185737 
L 294.661456 143.890063 
"/>
    <path clip-path="url(#pd0ca201f6b)" d="M 295.006522 124.474974 
L 287.673539 122.600936 
L 287.961511 123.929578 
L 282.522618 120.657029 
L 288.864748 120.395271 
L 287.974618 121.422834 
L 295.307601 123.296872 
L 295.006522 124.474974 
"/>
    <path clip-path="url(#pd0ca201f6b)" d="M 295.283043 104.828733 
L 288.708166 106.221354 
L 289.554917 107.284948 
L 283.229098 106.760402 
L 288.799027 103.716223 
L 288.456203 105.03178 
L 295.03108 103.639158 
L 295.283043 104.828733 
"/>
    <path clip-path="url(#pd0ca201f6b)" d="M 295.743753 84.741456 
L 293.938106 91.383719 
L 295.270977 91.116002 
L 291.916027 96.504456 
L 291.750827 90.159077 
L 292.764723 91.064744 
L 294.57037 84.422481 
L 295.743753 84.741456 
"/>
    <path clip-path="url(#pd0ca201f6b)" d="M 295.71943 64.698939 
L 297.470873 68.961859 
L 298.364558 67.937387 
L 298.987974 74.254228 
L 294.990347 69.323699 
L 296.346136 69.423964 
L 294.594693 65.161043 
L 295.71943 64.698939 
"/>
    <path clip-path="url(#pd0ca201f6b)" d="M 295.538151 44.80429 
L 300.169837 48.530277 
L 300.458293 47.20174 
L 304.05226 52.433808 
L 298.171755 50.044081 
L 299.407658 49.477724 
L 294.775972 45.751737 
L 295.538151 44.80429 
"/>
    <path clip-path="url(#pd0ca201f6b)" d="M 295.255831 25.026129 
L 300.505016 25.890362 
L 300.102648 24.591779 
L 305.805406 27.379193 
L 299.510031 28.191219 
L 300.307477 27.090175 
L 295.058292 26.225943 
L 295.255831 25.026129 
"/>
    <path clip-path="url(#pd0ca201f6b)" d="M 314.202394 320.44604 
L 313.643639 312.040379 
L 312.470677 312.727675 
L 313.887351 306.540255 
L 316.110542 312.48572 
L 314.856928 311.959727 
L 315.415683 320.365388 
L 314.202394 320.44604 
"/>
    <path clip-path="url(#pd0ca201f6b)" d="M 314.241645 300.972155 
L 311.960841 295.047267 
L 311.044473 296.051502 
L 310.562455 289.7223 
L 314.448838 294.740981 
L 313.09563 294.610427 
L 315.376433 300.535314 
L 314.241645 300.972155 
"/>
    <path clip-path="url(#pd0ca201f6b)" d="M 314.577986 281.664123 
L 310.315066 279.912678 
L 310.41533 281.268468 
L 305.484802 277.27084 
L 311.801644 277.894257 
L 310.777171 278.787942 
L 315.040091 280.539386 
L 314.577986 281.664123 
"/>
    <path clip-path="url(#pd0ca201f6b)" d="M 315.333955 261.756546 
L 311.99077 267.477125 
L 313.34737 267.565746 
L 308.704942 271.894601 
L 310.197874 265.725137 
L 310.940938 266.863589 
L 314.284123 261.143009 
L 315.333955 261.756546 
"/>
    <path clip-path="url(#pd0ca201f6b)" d="M 315.413046 241.867215 
L 314.354687 251.075815 
L 315.63212 250.610647 
L 313.125904 256.442458 
L 312.008078 250.19413 
L 313.146673 250.936976 
L 314.205032 241.728376 
L 315.413046 241.867215 
"/>
    <path clip-path="url(#pd0ca201f6b)" d="M 315.39809 221.995279 
L 317.272128 229.328264 
L 318.29969 228.438134 
L 318.037932 234.780264 
L 314.765383 229.341371 
L 316.094025 229.629343 
L 314.219988 222.296358 
L 315.39809 221.995279 
"/>
    <path clip-path="url(#pd0ca201f6b)" d="M 314.925959 201.897206 
L 317.653731 202.431757 
L 317.290936 201.121567 
L 322.906524 204.080673 
L 316.589415 204.701376 
L 317.419891 203.625027 
L 314.692119 203.090476 
L 314.925959 201.897206 
"/>
    <path clip-path="url(#pd0ca201f6b)" d="M 314.380546 182.410543 
L 316.723884 180.082573 
L 315.435579 179.648424 
L 321.034266 176.657464 
L 318.006532 182.23635 
L 317.580869 180.945216 
L 315.237531 183.273185 
L 314.380546 182.410543 
"/>
    <path clip-path="url(#pd0ca201f6b)" d="M 314.265589 162.917287 
L 317.340716 156.786568 
L 315.981226 156.784836 
L 320.337483 152.16811 
L 319.241925 158.420381 
L 318.427616 157.33175 
L 315.352489 163.462468 
L 314.265589 162.917287 
"/>
    <path clip-path="url(#pd0ca201f6b)" d="M 314.223182 143.700427 
L 312.270851 136.662882 
L 311.261663 137.573792 
L 311.393971 131.227641 
L 314.776806 136.598633 
L 313.442566 136.337829 
L 315.394896 143.375374 
L 314.223182 143.700427 
"/>
    <path clip-path="url(#pd0ca201f6b)" d="M 314.325949 124.255067 
L 312.013188 121.228412 
L 311.416152 122.44979 
L 309.173982 116.511456 
L 314.314693 120.234926 
L 312.979369 120.490124 
L 315.292129 123.516779 
L 314.325949 124.255067 
"/>
    <path clip-path="url(#pd0ca201f6b)" d="M 314.829178 104.841595 
L 310.570054 104.982757 
L 311.217983 106.177916 
L 305.081069 104.556363 
L 311.097145 102.532019 
L 310.529775 103.767458 
L 314.788899 103.626296 
L 314.829178 104.841595 
"/>
    <path clip-path="url(#pd0ca201f6b)" d="M 315.38862 84.765622 
L 312.958673 92.434133 
L 314.30149 92.22186 
L 310.726206 97.466713 
L 310.824001 91.119936 
L 311.79951 92.066826 
L 314.229457 84.398314 
L 315.38862 84.765622 
"/>
    <path clip-path="url(#pd0ca201f6b)" d="M 315.416802 64.913657 
L 315.668985 74.29739 
L 316.868179 73.656959 
L 315.208221 79.783596 
L 313.221597 73.754959 
L 314.453457 74.330056 
L 314.201275 64.946324 
L 315.416802 64.913657 
"/>
    <path clip-path="url(#pd0ca201f6b)" d="M 315.340621 44.982948 
L 318.592502 50.841449 
L 319.360601 49.719736 
L 320.716509 55.920756 
L 316.171107 51.490129 
L 317.529337 51.43158 
L 314.277456 45.573079 
L 315.340621 44.982948 
"/>
    <path clip-path="url(#pd0ca201f6b)" d="M 315.138473 25.115041 
L 318.025302 26.976156 
L 318.173176 25.62473 
L 322.294825 30.452063 
L 316.196568 28.690703 
L 317.366432 27.998147 
L 314.479604 26.137031 
L 315.138473 25.115041 
"/>
    <path clip-path="url(#pd0ca201f6b)" d="M 333.853033 320.405714 
L 333.853033 309.590433 
L 332.637066 310.198416 
L 334.461015 304.118585 
L 336.284965 310.198416 
L 335.068999 309.590433 
L 335.068999 320.405714 
L 333.853033 320.405714 
"/>
    <path clip-path="url(#pd0ca201f6b)" d="M 333.858145 300.83241 
L 332.72285 292.132969 
L 331.595784 292.893192 
L 332.617638 286.628453 
L 335.213011 292.421136 
L 333.928593 291.975617 
L 335.063887 300.675059 
L 333.858145 300.83241 
"/>
    <path clip-path="url(#pd0ca201f6b)" d="M 333.865479 281.224145 
L 333.395256 278.936094 
L 332.326572 279.776411 
L 332.889279 273.453872 
L 335.899793 279.042069 
L 334.586329 278.691313 
L 335.056553 280.979364 
L 333.865479 281.224145 
"/>
    <path clip-path="url(#pd0ca201f6b)" d="M 335.016026 261.697986 
L 332.968574 266.276228 
L 334.326802 266.217634 
L 330.179692 271.023111 
L 330.996742 264.728386 
L 331.858554 265.779812 
L 333.906006 261.20157 
L 335.016026 261.697986 
"/>
    <path clip-path="url(#pd0ca201f6b)" d="M 335.066647 241.851219 
L 334.197348 251.706004 
L 335.462034 251.207219 
L 333.110907 257.103263 
L 331.828246 250.886679 
L 332.986085 251.599157 
L 333.855385 241.744372 
L 335.066647 241.851219 
"/>
    <path clip-path="url(#pd0ca201f6b)" d="M 335.068916 222.135736 
L 335.254128 233.30315 
L 336.459844 232.675086 
L 334.736966 238.784327 
L 332.812448 232.735578 
L 334.038329 233.323314 
L 333.853117 222.1559 
L 335.068916 222.135736 
"/>
    <path clip-path="url(#pd0ca201f6b)" d="M 334.890925 202.063932 
L 336.054743 203.22775 
L 336.484652 201.938023 
L 339.494014 207.52684 
L 333.905198 204.517477 
L 335.194925 204.087568 
L 334.031107 202.92375 
L 334.890925 202.063932 
"/>
    <path clip-path="url(#pd0ca201f6b)" d="M 334.074278 182.498811 
L 334.417331 182.112073 
L 333.300803 181.812706 
L 337.891543 178.974487 
L 335.621229 183.871022 
L 335.190807 182.798179 
L 334.847754 183.184916 
L 334.074278 182.498811 
"/>
    <path clip-path="url(#pd0ca201f6b)" d="M 333.856339 163.126559 
L 334.533813 156.656795 
L 333.261141 157.134836 
L 335.708352 151.27802 
L 336.889203 157.514745 
L 335.743167 156.783431 
L 335.065693 163.253196 
L 333.856339 163.126559 
"/>
    <path clip-path="url(#pd0ca201f6b)" d="M 333.856393 143.601732 
L 332.79556 133.553359 
L 331.650145 134.285645 
L 332.825698 128.04792 
L 335.277883 133.902655 
L 334.004805 133.425696 
L 335.065639 143.474069 
L 333.856393 143.601732 
"/>
    <path clip-path="url(#pd0ca201f6b)" d="M 333.871095 124.033016 
L 332.51222 118.583213 
L 331.479471 119.467321 
L 331.778301 113.12683 
L 335.018998 118.584762 
L 333.692062 118.289027 
L 335.050937 123.73883 
L 333.871095 124.033016 
"/>
    <path clip-path="url(#pd0ca201f6b)" d="M 334.197488 104.408174 
L 334.02326 104.144646 
L 333.670432 104.75663 
L 332.718733 101.598665 
L 335.2516 103.71126 
L 334.550316 103.796189 
L 334.724544 104.059717 
L 334.197488 104.408174 
"/>
    <path clip-path="url(#pd0ca201f6b)" d="M 335.052735 84.721654 
L 333.199344 92.572748 
L 334.522468 92.2604 
L 331.350452 97.758532 
L 330.972154 91.422285 
L 332.015906 92.293376 
L 333.869297 84.442282 
L 335.052735 84.721654 
"/>
    <path clip-path="url(#pd0ca201f6b)" d="M 335.068914 64.940179 
L 334.883807 75.984549 
L 336.109791 75.397028 
L 334.184212 81.44544 
L 332.462405 75.335897 
L 333.668012 75.964172 
L 333.853118 64.919802 
L 335.068914 64.940179 
"/>
    <path clip-path="url(#pd0ca201f6b)" d="M 335.068136 45.245621 
L 335.577443 54.791361 
L 336.75929 54.119457 
L 335.261857 60.28783 
L 333.116573 54.313812 
L 334.363204 54.856146 
L 333.853897 45.310406 
L 335.068136 45.245621 
"/>
    <path clip-path="url(#pd0ca201f6b)" d="M 334.998164 25.341229 
L 336.947079 29.016895 
L 337.736568 27.910132 
L 338.973195 34.136037 
L 334.513679 29.618975 
L 335.872782 29.586509 
L 333.923868 25.910843 
L 334.998164 25.341229 
"/>
   </g>
   <g id="matplotlib.axis_1">
    <g id="xtick_1">
     <g id="line2d_1">
      <defs>
       <path d="M 0 0 
L 0 3.5 
" id="me10ba32a00" style="stroke:#000000;stroke-width:0.8;"/>
      </defs>
      <g>
       <use style="stroke:#000000;stroke-width:0.8;" x="39.681338" xlink:href="#me10ba32a00" y="335.144698"/>
      </g>
     </g>
     <g id="text_1">
      <!-- 0.0 -->
      <g transform="translate(31.729776 349.743135)scale(0.1 -0.1)">
       <defs>
        <path d="M 2034 4250 
Q 1547 4250 1301 3770 
Q 1056 3291 1056 2328 
Q 1056 1369 1301 889 
Q 1547 409 2034 409 
Q 2525 409 2770 889 
Q 3016 1369 3016 2328 
Q 3016 3291 2770 3770 
Q 2525 4250 2034 4250 
z
M 2034 4750 
Q 2819 4750 3233 4129 
Q 3647 3509 3647 2328 
Q 3647 1150 3233 529 
Q 2819 -91 2034 -91 
Q 1250 -91 836 529 
Q 422 1150 422 2328 
Q 422 3509 836 4129 
Q 1250 4750 2034 4750 
z
" id="DejaVuSans-30" transform="scale(0.015625)"/>
        <path d="M 684 794 
L 1344 794 
L 1344 0 
L 684 0 
L 684 794 
z
" id="DejaVuSans-2e" transform="scale(0.015625)"/>
       </defs>
       <use xlink:href="#DejaVuSans-30"/>
       <use x="63.623047" xlink:href="#DejaVuSans-2e"/>
       <use x="95.410156" xlink:href="#DejaVuSans-30"/>
      </g>
     </g>
    </g>
    <g id="xtick_2">
     <g id="line2d_2">
      <g>
       <use style="stroke:#000000;stroke-width:0.8;" x="98.637274" xlink:href="#me10ba32a00" y="335.144698"/>
      </g>
     </g>
     <g id="text_2">
      <!-- 0.2 -->
      <g transform="translate(90.685711 349.743135)scale(0.1 -0.1)">
       <defs>
        <path d="M 1228 531 
L 3431 531 
L 3431 0 
L 469 0 
L 469 531 
Q 828 903 1448 1529 
Q 2069 2156 2228 2338 
Q 2531 2678 2651 2914 
Q 2772 3150 2772 3378 
Q 2772 3750 2511 3984 
Q 2250 4219 1831 4219 
Q 1534 4219 1204 4116 
Q 875 4013 500 3803 
L 500 4441 
Q 881 4594 1212 4672 
Q 1544 4750 1819 4750 
Q 2544 4750 2975 4387 
Q 3406 4025 3406 3419 
Q 3406 3131 3298 2873 
Q 3191 2616 2906 2266 
Q 2828 2175 2409 1742 
Q 1991 1309 1228 531 
z
" id="DejaVuSans-32" transform="scale(0.015625)"/>
       </defs>
       <use xlink:href="#DejaVuSans-30"/>
       <use x="63.623047" xlink:href="#DejaVuSans-2e"/>
       <use x="95.410156" xlink:href="#DejaVuSans-32"/>
      </g>
     </g>
    </g>
    <g id="xtick_3">
     <g id="line2d_3">
      <g>
       <use style="stroke:#000000;stroke-width:0.8;" x="157.593209" xlink:href="#me10ba32a00" y="335.144698"/>
      </g>
     </g>
     <g id="text_3">
      <!-- 0.4 -->
      <g transform="translate(149.641647 349.743135)scale(0.1 -0.1)">
       <defs>
        <path d="M 2419 4116 
L 825 1625 
L 2419 1625 
L 2419 4116 
z
M 2253 4666 
L 3047 4666 
L 3047 1625 
L 3713 1625 
L 3713 1100 
L 3047 1100 
L 3047 0 
L 2419 0 
L 2419 1100 
L 313 1100 
L 313 1709 
L 2253 4666 
z
" id="DejaVuSans-34" transform="scale(0.015625)"/>
       </defs>
       <use xlink:href="#DejaVuSans-30"/>
       <use x="63.623047" xlink:href="#DejaVuSans-2e"/>
       <use x="95.410156" xlink:href="#DejaVuSans-34"/>
      </g>
     </g>
    </g>
    <g id="xtick_4">
     <g id="line2d_4">
      <g>
       <use style="stroke:#000000;stroke-width:0.8;" x="216.549145" xlink:href="#me10ba32a00" y="335.144698"/>
      </g>
     </g>
     <g id="text_4">
      <!-- 0.6 -->
      <g transform="translate(208.597582 349.743135)scale(0.1 -0.1)">
       <defs>
        <path d="M 2113 2584 
Q 1688 2584 1439 2293 
Q 1191 2003 1191 1497 
Q 1191 994 1439 701 
Q 1688 409 2113 409 
Q 2538 409 2786 701 
Q 3034 994 3034 1497 
Q 3034 2003 2786 2293 
Q 2538 2584 2113 2584 
z
M 3366 4563 
L 3366 3988 
Q 3128 4100 2886 4159 
Q 2644 4219 2406 4219 
Q 1781 4219 1451 3797 
Q 1122 3375 1075 2522 
Q 1259 2794 1537 2939 
Q 1816 3084 2150 3084 
Q 2853 3084 3261 2657 
Q 3669 2231 3669 1497 
Q 3669 778 3244 343 
Q 2819 -91 2113 -91 
Q 1303 -91 875 529 
Q 447 1150 447 2328 
Q 447 3434 972 4092 
Q 1497 4750 2381 4750 
Q 2619 4750 2861 4703 
Q 3103 4656 3366 4563 
z
" id="DejaVuSans-36" transform="scale(0.015625)"/>
       </defs>
       <use xlink:href="#DejaVuSans-30"/>
       <use x="63.623047" xlink:href="#DejaVuSans-2e"/>
       <use x="95.410156" xlink:href="#DejaVuSans-36"/>
      </g>
     </g>
    </g>
    <g id="xtick_5">
     <g id="line2d_5">
      <g>
       <use style="stroke:#000000;stroke-width:0.8;" x="275.50508" xlink:href="#me10ba32a00" y="335.144698"/>
      </g>
     </g>
     <g id="text_5">
      <!-- 0.8 -->
      <g transform="translate(267.553518 349.743135)scale(0.1 -0.1)">
       <defs>
        <path d="M 2034 2216 
Q 1584 2216 1326 1975 
Q 1069 1734 1069 1313 
Q 1069 891 1326 650 
Q 1584 409 2034 409 
Q 2484 409 2743 651 
Q 3003 894 3003 1313 
Q 3003 1734 2745 1975 
Q 2488 2216 2034 2216 
z
M 1403 2484 
Q 997 2584 770 2862 
Q 544 3141 544 3541 
Q 544 4100 942 4425 
Q 1341 4750 2034 4750 
Q 2731 4750 3128 4425 
Q 3525 4100 3525 3541 
Q 3525 3141 3298 2862 
Q 3072 2584 2669 2484 
Q 3125 2378 3379 2068 
Q 3634 1759 3634 1313 
Q 3634 634 3220 271 
Q 2806 -91 2034 -91 
Q 1263 -91 848 271 
Q 434 634 434 1313 
Q 434 1759 690 2068 
Q 947 2378 1403 2484 
z
M 1172 3481 
Q 1172 3119 1398 2916 
Q 1625 2713 2034 2713 
Q 2441 2713 2670 2916 
Q 2900 3119 2900 3481 
Q 2900 3844 2670 4047 
Q 2441 4250 2034 4250 
Q 1625 4250 1398 4047 
Q 1172 3844 1172 3481 
z
" id="DejaVuSans-38" transform="scale(0.015625)"/>
       </defs>
       <use xlink:href="#DejaVuSans-30"/>
       <use x="63.623047" xlink:href="#DejaVuSans-2e"/>
       <use x="95.410156" xlink:href="#DejaVuSans-38"/>
      </g>
     </g>
    </g>
    <g id="xtick_6">
     <g id="line2d_6">
      <g>
       <use style="stroke:#000000;stroke-width:0.8;" x="334.461016" xlink:href="#me10ba32a00" y="335.144698"/>
      </g>
     </g>
     <g id="text_6">
      <!-- 1.0 -->
      <g transform="translate(326.509454 349.743135)scale(0.1 -0.1)">
       <defs>
        <path d="M 794 531 
L 1825 531 
L 1825 4091 
L 703 3866 
L 703 4441 
L 1819 4666 
L 2450 4666 
L 2450 531 
L 3481 531 
L 3481 0 
L 794 0 
L 794 531 
z
" id="DejaVuSans-31" transform="scale(0.015625)"/>
       </defs>
       <use xlink:href="#DejaVuSans-31"/>
       <use x="63.623047" xlink:href="#DejaVuSans-2e"/>
       <use x="95.410156" xlink:href="#DejaVuSans-30"/>
      </g>
     </g>
    </g>
   </g>
   <g id="matplotlib.axis_2">
    <g id="ytick_1">
     <g id="line2d_7">
      <defs>
       <path d="M 0 0 
L -3.5 0 
" id="mf7f7b09ab4" style="stroke:#000000;stroke-width:0.8;"/>
      </defs>
      <g>
       <use style="stroke:#000000;stroke-width:0.8;" x="24.942354" xlink:href="#mf7f7b09ab4" y="320.405714"/>
      </g>
     </g>
     <g id="text_7">
      <!-- 0.0 -->
      <g transform="translate(2.039229 324.204933)scale(0.1 -0.1)">
       <use xlink:href="#DejaVuSans-30"/>
       <use x="63.623047" xlink:href="#DejaVuSans-2e"/>
       <use x="95.410156" xlink:href="#DejaVuSans-30"/>
      </g>
     </g>
    </g>
    <g id="ytick_2">
     <g id="line2d_8">
      <g>
       <use style="stroke:#000000;stroke-width:0.8;" x="24.942354" xlink:href="#mf7f7b09ab4" y="261.449778"/>
      </g>
     </g>
     <g id="text_8">
      <!-- 0.2 -->
      <g transform="translate(2.039229 265.248997)scale(0.1 -0.1)">
       <use xlink:href="#DejaVuSans-30"/>
       <use x="63.623047" xlink:href="#DejaVuSans-2e"/>
       <use x="95.410156" xlink:href="#DejaVuSans-32"/>
      </g>
     </g>
    </g>
    <g id="ytick_3">
     <g id="line2d_9">
      <g>
       <use style="stroke:#000000;stroke-width:0.8;" x="24.942354" xlink:href="#mf7f7b09ab4" y="202.493843"/>
      </g>
     </g>
     <g id="text_9">
      <!-- 0.4 -->
      <g transform="translate(2.039229 206.293062)scale(0.1 -0.1)">
       <use xlink:href="#DejaVuSans-30"/>
       <use x="63.623047" xlink:href="#DejaVuSans-2e"/>
       <use x="95.410156" xlink:href="#DejaVuSans-34"/>
      </g>
     </g>
    </g>
    <g id="ytick_4">
     <g id="line2d_10">
      <g>
       <use style="stroke:#000000;stroke-width:0.8;" x="24.942354" xlink:href="#mf7f7b09ab4" y="143.537907"/>
      </g>
     </g>
     <g id="text_10">
      <!-- 0.6 -->
      <g transform="translate(2.039229 147.337126)scale(0.1 -0.1)">
       <use xlink:href="#DejaVuSans-30"/>
       <use x="63.623047" xlink:href="#DejaVuSans-2e"/>
       <use x="95.410156" xlink:href="#DejaVuSans-36"/>
      </g>
     </g>
    </g>
    <g id="ytick_5">
     <g id="line2d_11">
      <g>
       <use style="stroke:#000000;stroke-width:0.8;" x="24.942354" xlink:href="#mf7f7b09ab4" y="84.581972"/>
      </g>
     </g>
     <g id="text_11">
      <!-- 0.8 -->
      <g transform="translate(2.039229 88.38119)scale(0.1 -0.1)">
       <use xlink:href="#DejaVuSans-30"/>
       <use x="63.623047" xlink:href="#DejaVuSans-2e"/>
       <use x="95.410156" xlink:href="#DejaVuSans-38"/>
      </g>
     </g>
    </g>
    <g id="ytick_6">
     <g id="line2d_12">
      <g>
       <use style="stroke:#000000;stroke-width:0.8;" x="24.942354" xlink:href="#mf7f7b09ab4" y="25.626036"/>
      </g>
     </g>
     <g id="text_12">
      <!-- 1.0 -->
      <g transform="translate(2.039229 29.425255)scale(0.1 -0.1)">
       <use xlink:href="#DejaVuSans-31"/>
       <use x="63.623047" xlink:href="#DejaVuSans-2e"/>
       <use x="95.410156" xlink:href="#DejaVuSans-30"/>
      </g>
     </g>
    </g>
   </g>
   <g id="patch_3">
    <path d="M 24.942354 335.144698 
L 24.942354 10.887052 
" style="fill:none;stroke:#000000;stroke-linecap:square;stroke-linejoin:miter;stroke-width:0.8;"/>
   </g>
   <g id="patch_4">
    <path d="M 349.2 335.144698 
L 349.2 10.887052 
" style="fill:none;stroke:#000000;stroke-linecap:square;stroke-linejoin:miter;stroke-width:0.8;"/>
   </g>
   <g id="patch_5">
    <path d="M 24.942354 335.144698 
L 349.2 335.144698 
" style="fill:none;stroke:#000000;stroke-linecap:square;stroke-linejoin:miter;stroke-width:0.8;"/>
   </g>
   <g id="patch_6">
    <path d="M 24.942354 10.887052 
L 349.2 10.887052 
" style="fill:none;stroke:#000000;stroke-linecap:square;stroke-linejoin:miter;stroke-width:0.8;"/>
   </g>
  </g>
 </g>
 <defs>
  <clipPath id="pd0ca201f6b">
   <rect height="324.257646" width="324.257646" x="24.942354" y="10.887052"/>
  </clipPath>
 </defs>
</svg>
