<?xml version="1.0" encoding="utf-8" standalone="no"?>
<!DOCTYPE svg PUBLIC "-//W3C//DTD SVG 1.1//EN"
  "http://www.w3.org/Graphics/SVG/1.1/DTD/svg11.dtd">
<svg xmlns:xlink="http://www.w3.org/1999/xlink" width="360pt" height="144pt" viewBox="0 0 360 144" xmlns="http://www.w3.org/2000/svg" version="1.1">
 <metadata>
  <rdf:RDF xmlns:dc="http://purl.org/dc/elements/1.1/" xmlns:cc="http://creativecommons.org/ns#" xmlns:rdf="http://www.w3.org/1999/02/22-rdf-syntax-ns#">
   <cc:Work>
    <dc:type rdf:resource="http://purl.org/dc/dcmitype/StillImage"/>
    <dc:date>2022-01-10T14:07:13.495981</dc:date>
    <dc:format>image/svg+xml</dc:format>
    <dc:creator>
     <cc:Agent>
      <dc:title>Matplotlib v3.5.1, https://matplotlib.org/</dc:title>
     </cc:Agent>
    </dc:creator>
   </cc:Work>
  </rdf:RDF>
 </metadata>
 <defs>
  <style type="text/css">*{stroke-linejoin: round; stroke-linecap: butt}</style>
 </defs>
 <g id="figure_1">
  <g id="patch_1">
   <path d="M 0 144 
L 360 144 
L 360 0 
L 0 0 
z
" style="fill: #ffffff"/>
  </g>
  <g id="axes_1">
   <g id="patch_2">
    <path d="M 14.3 116.12 
L 349.2 116.12 
L 349.2 10.8 
L 14.3 10.8 
z
" style="fill: #ffffff"/>
   </g>
   <g id="matplotlib.axis_1">
    <g id="xtick_1">
     <g id="line2d_1">
      <path d="M 29.522727 116.12 
L 29.522727 10.8 
" clip-path="url(#p0ba7bdd5b5)" style="fill: none; stroke: #b0b0b0; stroke-width: 0.8; stroke-linecap: square"/>
     </g>
     <g id="line2d_2">
      <defs>
       <path id="m7570f27597" d="M 0 0 
L 0 3.5 
" style="stroke: #000000; stroke-width: 0.8"/>
      </defs>
      <g>
       <use xlink:href="#m7570f27597" x="29.522727" y="116.12" style="stroke: #000000; stroke-width: 0.8"/>
      </g>
     </g>
     <g id="text_1">
      <!-- 0.0 -->
      <g transform="translate(21.571165 130.718437)scale(0.1 -0.1)">
       <defs>
        <path id="DejaVuSans-30" d="M 2034 4250 
Q 1547 4250 1301 3770 
Q 1056 3291 1056 2328 
Q 1056 1369 1301 889 
Q 1547 409 2034 409 
Q 2525 409 2770 889 
Q 3016 1369 3016 2328 
Q 3016 3291 2770 3770 
Q 2525 4250 2034 4250 
z
M 2034 4750 
Q 2819 4750 3233 4129 
Q 3647 3509 3647 2328 
Q 3647 1150 3233 529 
Q 2819 -91 2034 -91 
Q 1250 -91 836 529 
Q 422 1150 422 2328 
Q 422 3509 836 4129 
Q 1250 4750 2034 4750 
z
" transform="scale(0.015625)"/>
        <path id="DejaVuSans-2e" d="M 684 794 
L 1344 794 
L 1344 0 
L 684 0 
L 684 794 
z
" transform="scale(0.015625)"/>
       </defs>
       <use xlink:href="#DejaVuSans-30"/>
       <use xlink:href="#DejaVuSans-2e" x="63.623047"/>
       <use xlink:href="#DejaVuSans-30" x="95.410156"/>
      </g>
     </g>
    </g>
    <g id="xtick_2">
     <g id="line2d_3">
      <path d="M 90.413636 116.12 
L 90.413636 10.8 
" clip-path="url(#p0ba7bdd5b5)" style="fill: none; stroke: #b0b0b0; stroke-width: 0.8; stroke-linecap: square"/>
     </g>
     <g id="line2d_4">
      <g>
       <use xlink:href="#m7570f27597" x="90.413636" y="116.12" style="stroke: #000000; stroke-width: 0.8"/>
      </g>
     </g>
     <g id="text_2">
      <!-- 0.2 -->
      <g transform="translate(82.462074 130.718437)scale(0.1 -0.1)">
       <defs>
        <path id="DejaVuSans-32" d="M 1228 531 
L 3431 531 
L 3431 0 
L 469 0 
L 469 531 
Q 828 903 1448 1529 
Q 2069 2156 2228 2338 
Q 2531 2678 2651 2914 
Q 2772 3150 2772 3378 
Q 2772 3750 2511 3984 
Q 2250 4219 1831 4219 
Q 1534 4219 1204 4116 
Q 875 4013 500 3803 
L 500 4441 
Q 881 4594 1212 4672 
Q 1544 4750 1819 4750 
Q 2544 4750 2975 4387 
Q 3406 4025 3406 3419 
Q 3406 3131 3298 2873 
Q 3191 2616 2906 2266 
Q 2828 2175 2409 1742 
Q 1991 1309 1228 531 
z
" transform="scale(0.015625)"/>
       </defs>
       <use xlink:href="#DejaVuSans-30"/>
       <use xlink:href="#DejaVuSans-2e" x="63.623047"/>
       <use xlink:href="#DejaVuSans-32" x="95.410156"/>
      </g>
     </g>
    </g>
    <g id="xtick_3">
     <g id="line2d_5">
      <path d="M 151.304545 116.12 
L 151.304545 10.8 
" clip-path="url(#p0ba7bdd5b5)" style="fill: none; stroke: #b0b0b0; stroke-width: 0.8; stroke-linecap: square"/>
     </g>
     <g id="line2d_6">
      <g>
       <use xlink:href="#m7570f27597" x="151.304545" y="116.12" style="stroke: #000000; stroke-width: 0.8"/>
      </g>
     </g>
     <g id="text_3">
      <!-- 0.4 -->
      <g transform="translate(143.352983 130.718437)scale(0.1 -0.1)">
       <defs>
        <path id="DejaVuSans-34" d="M 2419 4116 
L 825 1625 
L 2419 1625 
L 2419 4116 
z
M 2253 4666 
L 3047 4666 
L 3047 1625 
L 3713 1625 
L 3713 1100 
L 3047 1100 
L 3047 0 
L 2419 0 
L 2419 1100 
L 313 1100 
L 313 1709 
L 2253 4666 
z
" transform="scale(0.015625)"/>
       </defs>
       <use xlink:href="#DejaVuSans-30"/>
       <use xlink:href="#DejaVuSans-2e" x="63.623047"/>
       <use xlink:href="#DejaVuSans-34" x="95.410156"/>
      </g>
     </g>
    </g>
    <g id="xtick_4">
     <g id="line2d_7">
      <path d="M 212.195455 116.12 
L 212.195455 10.8 
" clip-path="url(#p0ba7bdd5b5)" style="fill: none; stroke: #b0b0b0; stroke-width: 0.8; stroke-linecap: square"/>
     </g>
     <g id="line2d_8">
      <g>
       <use xlink:href="#m7570f27597" x="212.195455" y="116.12" style="stroke: #000000; stroke-width: 0.8"/>
      </g>
     </g>
     <g id="text_4">
      <!-- 0.6 -->
      <g transform="translate(204.243892 130.718437)scale(0.1 -0.1)">
       <defs>
        <path id="DejaVuSans-36" d="M 2113 2584 
Q 1688 2584 1439 2293 
Q 1191 2003 1191 1497 
Q 1191 994 1439 701 
Q 1688 409 2113 409 
Q 2538 409 2786 701 
Q 3034 994 3034 1497 
Q 3034 2003 2786 2293 
Q 2538 2584 2113 2584 
z
M 3366 4563 
L 3366 3988 
Q 3128 4100 2886 4159 
Q 2644 4219 2406 4219 
Q 1781 4219 1451 3797 
Q 1122 3375 1075 2522 
Q 1259 2794 1537 2939 
Q 1816 3084 2150 3084 
Q 2853 3084 3261 2657 
Q 3669 2231 3669 1497 
Q 3669 778 3244 343 
Q 2819 -91 2113 -91 
Q 1303 -91 875 529 
Q 447 1150 447 2328 
Q 447 3434 972 4092 
Q 1497 4750 2381 4750 
Q 2619 4750 2861 4703 
Q 3103 4656 3366 4563 
z
" transform="scale(0.015625)"/>
       </defs>
       <use xlink:href="#DejaVuSans-30"/>
       <use xlink:href="#DejaVuSans-2e" x="63.623047"/>
       <use xlink:href="#DejaVuSans-36" x="95.410156"/>
      </g>
     </g>
    </g>
    <g id="xtick_5">
     <g id="line2d_9">
      <path d="M 273.086364 116.12 
L 273.086364 10.8 
" clip-path="url(#p0ba7bdd5b5)" style="fill: none; stroke: #b0b0b0; stroke-width: 0.8; stroke-linecap: square"/>
     </g>
     <g id="line2d_10">
      <g>
       <use xlink:href="#m7570f27597" x="273.086364" y="116.12" style="stroke: #000000; stroke-width: 0.8"/>
      </g>
     </g>
     <g id="text_5">
      <!-- 0.8 -->
      <g transform="translate(265.134801 130.718437)scale(0.1 -0.1)">
       <defs>
        <path id="DejaVuSans-38" d="M 2034 2216 
Q 1584 2216 1326 1975 
Q 1069 1734 1069 1313 
Q 1069 891 1326 650 
Q 1584 409 2034 409 
Q 2484 409 2743 651 
Q 3003 894 3003 1313 
Q 3003 1734 2745 1975 
Q 2488 2216 2034 2216 
z
M 1403 2484 
Q 997 2584 770 2862 
Q 544 3141 544 3541 
Q 544 4100 942 4425 
Q 1341 4750 2034 4750 
Q 2731 4750 3128 4425 
Q 3525 4100 3525 3541 
Q 3525 3141 3298 2862 
Q 3072 2584 2669 2484 
Q 3125 2378 3379 2068 
Q 3634 1759 3634 1313 
Q 3634 634 3220 271 
Q 2806 -91 2034 -91 
Q 1263 -91 848 271 
Q 434 634 434 1313 
Q 434 1759 690 2068 
Q 947 2378 1403 2484 
z
M 1172 3481 
Q 1172 3119 1398 2916 
Q 1625 2713 2034 2713 
Q 2441 2713 2670 2916 
Q 2900 3119 2900 3481 
Q 2900 3844 2670 4047 
Q 2441 4250 2034 4250 
Q 1625 4250 1398 4047 
Q 1172 3844 1172 3481 
z
" transform="scale(0.015625)"/>
       </defs>
       <use xlink:href="#DejaVuSans-30"/>
       <use xlink:href="#DejaVuSans-2e" x="63.623047"/>
       <use xlink:href="#DejaVuSans-38" x="95.410156"/>
      </g>
     </g>
    </g>
    <g id="xtick_6">
     <g id="line2d_11">
      <path d="M 333.977273 116.12 
L 333.977273 10.8 
" clip-path="url(#p0ba7bdd5b5)" style="fill: none; stroke: #b0b0b0; stroke-width: 0.8; stroke-linecap: square"/>
     </g>
     <g id="line2d_12">
      <g>
       <use xlink:href="#m7570f27597" x="333.977273" y="116.12" style="stroke: #000000; stroke-width: 0.8"/>
      </g>
     </g>
     <g id="text_6">
      <!-- 1.0 -->
      <g transform="translate(326.02571 130.718437)scale(0.1 -0.1)">
       <defs>
        <path id="DejaVuSans-31" d="M 794 531 
L 1825 531 
L 1825 4091 
L 703 3866 
L 703 4441 
L 1819 4666 
L 2450 4666 
L 2450 531 
L 3481 531 
L 3481 0 
L 794 0 
L 794 531 
z
" transform="scale(0.015625)"/>
       </defs>
       <use xlink:href="#DejaVuSans-31"/>
       <use xlink:href="#DejaVuSans-2e" x="63.623047"/>
       <use xlink:href="#DejaVuSans-30" x="95.410156"/>
      </g>
     </g>
    </g>
   </g>
   <g id="matplotlib.axis_2"/>
   <g id="line2d_13">
    <path d="M 29.522727 95.056 
L 35.611818 95.056 
" clip-path="url(#p0ba7bdd5b5)" style="fill: none; stroke: #d99999; stroke-width: 3; stroke-linecap: square"/>
   </g>
   <g id="line2d_14">
    <path d="M 29.522727 99.2688 
L 29.522727 90.8432 
" clip-path="url(#p0ba7bdd5b5)" style="fill: none; stroke: #000000; stroke-width: 2; stroke-linecap: square"/>
   </g>
   <g id="line2d_15">
    <path d="M 35.611818 99.2688 
L 35.611818 90.8432 
" clip-path="url(#p0ba7bdd5b5)" style="fill: none; stroke: #000000; stroke-width: 2; stroke-linecap: square"/>
   </g>
   <g id="line2d_16">
    <path d="M 35.611818 95.056 
L 41.700909 95.056 
" clip-path="url(#p0ba7bdd5b5)" style="fill: none; stroke: #d99999; stroke-width: 3; stroke-linecap: square"/>
   </g>
   <g id="line2d_17">
    <path d="M 35.611818 99.2688 
L 35.611818 90.8432 
" clip-path="url(#p0ba7bdd5b5)" style="fill: none; stroke: #000000; stroke-width: 2; stroke-linecap: square"/>
   </g>
   <g id="line2d_18">
    <path d="M 41.700909 99.2688 
L 41.700909 90.8432 
" clip-path="url(#p0ba7bdd5b5)" style="fill: none; stroke: #000000; stroke-width: 2; stroke-linecap: square"/>
   </g>
   <g id="line2d_19">
    <path d="M 41.700909 95.056 
L 47.79 95.056 
" clip-path="url(#p0ba7bdd5b5)" style="fill: none; stroke: #d99999; stroke-width: 3; stroke-linecap: square"/>
   </g>
   <g id="line2d_20">
    <path d="M 41.700909 99.2688 
L 41.700909 90.8432 
" clip-path="url(#p0ba7bdd5b5)" style="fill: none; stroke: #000000; stroke-width: 2; stroke-linecap: square"/>
   </g>
   <g id="line2d_21">
    <path d="M 47.79 99.2688 
L 47.79 90.8432 
" clip-path="url(#p0ba7bdd5b5)" style="fill: none; stroke: #000000; stroke-width: 2; stroke-linecap: square"/>
   </g>
   <g id="line2d_22">
    <path d="M 47.79 95.056 
L 53.879091 95.056 
" clip-path="url(#p0ba7bdd5b5)" style="fill: none; stroke: #d99999; stroke-width: 3; stroke-linecap: square"/>
   </g>
   <g id="line2d_23">
    <path d="M 47.79 99.2688 
L 47.79 90.8432 
" clip-path="url(#p0ba7bdd5b5)" style="fill: none; stroke: #000000; stroke-width: 2; stroke-linecap: square"/>
   </g>
   <g id="line2d_24">
    <path d="M 53.879091 99.2688 
L 53.879091 90.8432 
" clip-path="url(#p0ba7bdd5b5)" style="fill: none; stroke: #000000; stroke-width: 2; stroke-linecap: square"/>
   </g>
   <g id="line2d_25">
    <path d="M 53.879091 95.056 
L 59.968182 95.056 
" clip-path="url(#p0ba7bdd5b5)" style="fill: none; stroke: #d99999; stroke-width: 3; stroke-linecap: square"/>
   </g>
   <g id="line2d_26">
    <path d="M 53.879091 99.2688 
L 53.879091 90.8432 
" clip-path="url(#p0ba7bdd5b5)" style="fill: none; stroke: #000000; stroke-width: 2; stroke-linecap: square"/>
   </g>
   <g id="line2d_27">
    <path d="M 59.968182 99.2688 
L 59.968182 90.8432 
" clip-path="url(#p0ba7bdd5b5)" style="fill: none; stroke: #000000; stroke-width: 2; stroke-linecap: square"/>
   </g>
   <g id="line2d_28">
    <path d="M 59.968182 95.056 
L 66.057273 95.056 
" clip-path="url(#p0ba7bdd5b5)" style="fill: none; stroke: #d99999; stroke-width: 3; stroke-linecap: square"/>
   </g>
   <g id="line2d_29">
    <path d="M 59.968182 99.2688 
L 59.968182 90.8432 
" clip-path="url(#p0ba7bdd5b5)" style="fill: none; stroke: #000000; stroke-width: 2; stroke-linecap: square"/>
   </g>
   <g id="line2d_30">
    <path d="M 66.057273 99.2688 
L 66.057273 90.8432 
" clip-path="url(#p0ba7bdd5b5)" style="fill: none; stroke: #000000; stroke-width: 2; stroke-linecap: square"/>
   </g>
   <g id="line2d_31">
    <path d="M 66.057273 95.056 
L 72.146364 95.056 
" clip-path="url(#p0ba7bdd5b5)" style="fill: none; stroke: #d99999; stroke-width: 3; stroke-linecap: square"/>
   </g>
   <g id="line2d_32">
    <path d="M 66.057273 99.2688 
L 66.057273 90.8432 
" clip-path="url(#p0ba7bdd5b5)" style="fill: none; stroke: #000000; stroke-width: 2; stroke-linecap: square"/>
   </g>
   <g id="line2d_33">
    <path d="M 72.146364 99.2688 
L 72.146364 90.8432 
" clip-path="url(#p0ba7bdd5b5)" style="fill: none; stroke: #000000; stroke-width: 2; stroke-linecap: square"/>
   </g>
   <g id="line2d_34">
    <path d="M 72.146364 95.056 
L 78.235455 95.056 
" clip-path="url(#p0ba7bdd5b5)" style="fill: none; stroke: #d99999; stroke-width: 3; stroke-linecap: square"/>
   </g>
   <g id="line2d_35">
    <path d="M 72.146364 99.2688 
L 72.146364 90.8432 
" clip-path="url(#p0ba7bdd5b5)" style="fill: none; stroke: #000000; stroke-width: 2; stroke-linecap: square"/>
   </g>
   <g id="line2d_36">
    <path d="M 78.235455 99.2688 
L 78.235455 90.8432 
" clip-path="url(#p0ba7bdd5b5)" style="fill: none; stroke: #000000; stroke-width: 2; stroke-linecap: square"/>
   </g>
   <g id="line2d_37">
    <path d="M 78.235455 95.056 
L 84.324545 95.056 
" clip-path="url(#p0ba7bdd5b5)" style="fill: none; stroke: #d99999; stroke-width: 3; stroke-linecap: square"/>
   </g>
   <g id="line2d_38">
    <path d="M 78.235455 99.2688 
L 78.235455 90.8432 
" clip-path="url(#p0ba7bdd5b5)" style="fill: none; stroke: #000000; stroke-width: 2; stroke-linecap: square"/>
   </g>
   <g id="line2d_39">
    <path d="M 84.324545 99.2688 
L 84.324545 90.8432 
" clip-path="url(#p0ba7bdd5b5)" style="fill: none; stroke: #000000; stroke-width: 2; stroke-linecap: square"/>
   </g>
   <g id="line2d_40">
    <path d="M 84.324545 95.056 
L 90.413636 95.056 
" clip-path="url(#p0ba7bdd5b5)" style="fill: none; stroke: #d99999; stroke-width: 3; stroke-linecap: square"/>
   </g>
   <g id="line2d_41">
    <path d="M 84.324545 99.2688 
L 84.324545 90.8432 
" clip-path="url(#p0ba7bdd5b5)" style="fill: none; stroke: #000000; stroke-width: 2; stroke-linecap: square"/>
   </g>
   <g id="line2d_42">
    <path d="M 90.413636 99.2688 
L 90.413636 90.8432 
" clip-path="url(#p0ba7bdd5b5)" style="fill: none; stroke: #000000; stroke-width: 2; stroke-linecap: square"/>
   </g>
   <g id="line2d_43">
    <path d="M 90.413636 95.056 
L 96.502727 95.056 
" clip-path="url(#p0ba7bdd5b5)" style="fill: none; stroke: #d99999; stroke-width: 3; stroke-linecap: square"/>
   </g>
   <g id="line2d_44">
    <path d="M 90.413636 99.2688 
L 90.413636 90.8432 
" clip-path="url(#p0ba7bdd5b5)" style="fill: none; stroke: #000000; stroke-width: 2; stroke-linecap: square"/>
   </g>
   <g id="line2d_45">
    <path d="M 96.502727 99.2688 
L 96.502727 90.8432 
" clip-path="url(#p0ba7bdd5b5)" style="fill: none; stroke: #000000; stroke-width: 2; stroke-linecap: square"/>
   </g>
   <g id="line2d_46">
    <path d="M 96.502727 95.056 
L 102.591818 95.056 
" clip-path="url(#p0ba7bdd5b5)" style="fill: none; stroke: #d99999; stroke-width: 3; stroke-linecap: square"/>
   </g>
   <g id="line2d_47">
    <path d="M 96.502727 99.2688 
L 96.502727 90.8432 
" clip-path="url(#p0ba7bdd5b5)" style="fill: none; stroke: #000000; stroke-width: 2; stroke-linecap: square"/>
   </g>
   <g id="line2d_48">
    <path d="M 102.591818 99.2688 
L 102.591818 90.8432 
" clip-path="url(#p0ba7bdd5b5)" style="fill: none; stroke: #000000; stroke-width: 2; stroke-linecap: square"/>
   </g>
   <g id="line2d_49">
    <path d="M 102.591818 95.056 
L 108.680909 95.056 
" clip-path="url(#p0ba7bdd5b5)" style="fill: none; stroke: #d99999; stroke-width: 3; stroke-linecap: square"/>
   </g>
   <g id="line2d_50">
    <path d="M 102.591818 99.2688 
L 102.591818 90.8432 
" clip-path="url(#p0ba7bdd5b5)" style="fill: none; stroke: #000000; stroke-width: 2; stroke-linecap: square"/>
   </g>
   <g id="line2d_51">
    <path d="M 108.680909 99.2688 
L 108.680909 90.8432 
" clip-path="url(#p0ba7bdd5b5)" style="fill: none; stroke: #000000; stroke-width: 2; stroke-linecap: square"/>
   </g>
   <g id="line2d_52">
    <path d="M 108.680909 95.056 
L 114.77 95.056 
" clip-path="url(#p0ba7bdd5b5)" style="fill: none; stroke: #d99999; stroke-width: 3; stroke-linecap: square"/>
   </g>
   <g id="line2d_53">
    <path d="M 108.680909 99.2688 
L 108.680909 90.8432 
" clip-path="url(#p0ba7bdd5b5)" style="fill: none; stroke: #000000; stroke-width: 2; stroke-linecap: square"/>
   </g>
   <g id="line2d_54">
    <path d="M 114.77 99.2688 
L 114.77 90.8432 
" clip-path="url(#p0ba7bdd5b5)" style="fill: none; stroke: #000000; stroke-width: 2; stroke-linecap: square"/>
   </g>
   <g id="line2d_55">
    <path d="M 114.77 95.056 
L 120.859091 95.056 
" clip-path="url(#p0ba7bdd5b5)" style="fill: none; stroke: #d99999; stroke-width: 3; stroke-linecap: square"/>
   </g>
   <g id="line2d_56">
    <path d="M 114.77 99.2688 
L 114.77 90.8432 
" clip-path="url(#p0ba7bdd5b5)" style="fill: none; stroke: #000000; stroke-width: 2; stroke-linecap: square"/>
   </g>
   <g id="line2d_57">
    <path d="M 120.859091 99.2688 
L 120.859091 90.8432 
" clip-path="url(#p0ba7bdd5b5)" style="fill: none; stroke: #000000; stroke-width: 2; stroke-linecap: square"/>
   </g>
   <g id="line2d_58">
    <path d="M 120.859091 95.056 
L 126.948182 95.056 
" clip-path="url(#p0ba7bdd5b5)" style="fill: none; stroke: #d99999; stroke-width: 3; stroke-linecap: square"/>
   </g>
   <g id="line2d_59">
    <path d="M 120.859091 99.2688 
L 120.859091 90.8432 
" clip-path="url(#p0ba7bdd5b5)" style="fill: none; stroke: #000000; stroke-width: 2; stroke-linecap: square"/>
   </g>
   <g id="line2d_60">
    <path d="M 126.948182 99.2688 
L 126.948182 90.8432 
" clip-path="url(#p0ba7bdd5b5)" style="fill: none; stroke: #000000; stroke-width: 2; stroke-linecap: square"/>
   </g>
   <g id="line2d_61">
    <path d="M 126.948182 95.056 
L 133.037273 95.056 
" clip-path="url(#p0ba7bdd5b5)" style="fill: none; stroke: #d99999; stroke-width: 3; stroke-linecap: square"/>
   </g>
   <g id="line2d_62">
    <path d="M 126.948182 99.2688 
L 126.948182 90.8432 
" clip-path="url(#p0ba7bdd5b5)" style="fill: none; stroke: #000000; stroke-width: 2; stroke-linecap: square"/>
   </g>
   <g id="line2d_63">
    <path d="M 133.037273 99.2688 
L 133.037273 90.8432 
" clip-path="url(#p0ba7bdd5b5)" style="fill: none; stroke: #000000; stroke-width: 2; stroke-linecap: square"/>
   </g>
   <g id="line2d_64">
    <path d="M 133.037273 95.056 
L 139.126364 95.056 
" clip-path="url(#p0ba7bdd5b5)" style="fill: none; stroke: #d99999; stroke-width: 3; stroke-linecap: square"/>
   </g>
   <g id="line2d_65">
    <path d="M 133.037273 99.2688 
L 133.037273 90.8432 
" clip-path="url(#p0ba7bdd5b5)" style="fill: none; stroke: #000000; stroke-width: 2; stroke-linecap: square"/>
   </g>
   <g id="line2d_66">
    <path d="M 139.126364 99.2688 
L 139.126364 90.8432 
" clip-path="url(#p0ba7bdd5b5)" style="fill: none; stroke: #000000; stroke-width: 2; stroke-linecap: square"/>
   </g>
   <g id="line2d_67">
    <path d="M 139.126364 95.056 
L 145.215455 95.056 
" clip-path="url(#p0ba7bdd5b5)" style="fill: none; stroke: #d99999; stroke-width: 3; stroke-linecap: square"/>
   </g>
   <g id="line2d_68">
    <path d="M 139.126364 99.2688 
L 139.126364 90.8432 
" clip-path="url(#p0ba7bdd5b5)" style="fill: none; stroke: #000000; stroke-width: 2; stroke-linecap: square"/>
   </g>
   <g id="line2d_69">
    <path d="M 145.215455 99.2688 
L 145.215455 90.8432 
" clip-path="url(#p0ba7bdd5b5)" style="fill: none; stroke: #000000; stroke-width: 2; stroke-linecap: square"/>
   </g>
   <g id="line2d_70">
    <path d="M 145.215455 95.056 
L 151.304545 95.056 
" clip-path="url(#p0ba7bdd5b5)" style="fill: none; stroke: #d99999; stroke-width: 3; stroke-linecap: square"/>
   </g>
   <g id="line2d_71">
    <path d="M 145.215455 99.2688 
L 145.215455 90.8432 
" clip-path="url(#p0ba7bdd5b5)" style="fill: none; stroke: #000000; stroke-width: 2; stroke-linecap: square"/>
   </g>
   <g id="line2d_72">
    <path d="M 151.304545 99.2688 
L 151.304545 90.8432 
" clip-path="url(#p0ba7bdd5b5)" style="fill: none; stroke: #000000; stroke-width: 2; stroke-linecap: square"/>
   </g>
   <g id="line2d_73">
    <path d="M 151.304545 95.056 
L 157.393636 95.056 
" clip-path="url(#p0ba7bdd5b5)" style="fill: none; stroke: #d99999; stroke-width: 3; stroke-linecap: square"/>
   </g>
   <g id="line2d_74">
    <path d="M 151.304545 99.2688 
L 151.304545 90.8432 
" clip-path="url(#p0ba7bdd5b5)" style="fill: none; stroke: #000000; stroke-width: 2; stroke-linecap: square"/>
   </g>
   <g id="line2d_75">
    <path d="M 157.393636 99.2688 
L 157.393636 90.8432 
" clip-path="url(#p0ba7bdd5b5)" style="fill: none; stroke: #000000; stroke-width: 2; stroke-linecap: square"/>
   </g>
   <g id="line2d_76">
    <path d="M 157.393636 95.056 
L 163.482727 95.056 
" clip-path="url(#p0ba7bdd5b5)" style="fill: none; stroke: #d99999; stroke-width: 3; stroke-linecap: square"/>
   </g>
   <g id="line2d_77">
    <path d="M 157.393636 99.2688 
L 157.393636 90.8432 
" clip-path="url(#p0ba7bdd5b5)" style="fill: none; stroke: #000000; stroke-width: 2; stroke-linecap: square"/>
   </g>
   <g id="line2d_78">
    <path d="M 163.482727 99.2688 
L 163.482727 90.8432 
" clip-path="url(#p0ba7bdd5b5)" style="fill: none; stroke: #000000; stroke-width: 2; stroke-linecap: square"/>
   </g>
   <g id="line2d_79">
    <path d="M 163.482727 95.056 
L 169.571818 95.056 
" clip-path="url(#p0ba7bdd5b5)" style="fill: none; stroke: #d99999; stroke-width: 3; stroke-linecap: square"/>
   </g>
   <g id="line2d_80">
    <path d="M 163.482727 99.2688 
L 163.482727 90.8432 
" clip-path="url(#p0ba7bdd5b5)" style="fill: none; stroke: #000000; stroke-width: 2; stroke-linecap: square"/>
   </g>
   <g id="line2d_81">
    <path d="M 169.571818 99.2688 
L 169.571818 90.8432 
" clip-path="url(#p0ba7bdd5b5)" style="fill: none; stroke: #000000; stroke-width: 2; stroke-linecap: square"/>
   </g>
   <g id="line2d_82">
    <path d="M 169.571818 95.056 
L 175.660909 95.056 
" clip-path="url(#p0ba7bdd5b5)" style="fill: none; stroke: #d99999; stroke-width: 3; stroke-linecap: square"/>
   </g>
   <g id="line2d_83">
    <path d="M 169.571818 99.2688 
L 169.571818 90.8432 
" clip-path="url(#p0ba7bdd5b5)" style="fill: none; stroke: #000000; stroke-width: 2; stroke-linecap: square"/>
   </g>
   <g id="line2d_84">
    <path d="M 175.660909 99.2688 
L 175.660909 90.8432 
" clip-path="url(#p0ba7bdd5b5)" style="fill: none; stroke: #000000; stroke-width: 2; stroke-linecap: square"/>
   </g>
   <g id="line2d_85">
    <path d="M 175.660909 95.056 
L 181.75 95.056 
" clip-path="url(#p0ba7bdd5b5)" style="fill: none; stroke: #d99999; stroke-width: 3; stroke-linecap: square"/>
   </g>
   <g id="line2d_86">
    <path d="M 175.660909 99.2688 
L 175.660909 90.8432 
" clip-path="url(#p0ba7bdd5b5)" style="fill: none; stroke: #000000; stroke-width: 2; stroke-linecap: square"/>
   </g>
   <g id="line2d_87">
    <path d="M 181.75 99.2688 
L 181.75 90.8432 
" clip-path="url(#p0ba7bdd5b5)" style="fill: none; stroke: #000000; stroke-width: 2; stroke-linecap: square"/>
   </g>
   <g id="line2d_88">
    <path d="M 181.75 95.056 
L 187.839091 95.056 
" clip-path="url(#p0ba7bdd5b5)" style="fill: none; stroke: #d99999; stroke-width: 3; stroke-linecap: square"/>
   </g>
   <g id="line2d_89">
    <path d="M 181.75 99.2688 
L 181.75 90.8432 
" clip-path="url(#p0ba7bdd5b5)" style="fill: none; stroke: #000000; stroke-width: 2; stroke-linecap: square"/>
   </g>
   <g id="line2d_90">
    <path d="M 187.839091 99.2688 
L 187.839091 90.8432 
" clip-path="url(#p0ba7bdd5b5)" style="fill: none; stroke: #000000; stroke-width: 2; stroke-linecap: square"/>
   </g>
   <g id="line2d_91">
    <path d="M 187.839091 95.056 
L 193.928182 95.056 
" clip-path="url(#p0ba7bdd5b5)" style="fill: none; stroke: #d99999; stroke-width: 3; stroke-linecap: square"/>
   </g>
   <g id="line2d_92">
    <path d="M 187.839091 99.2688 
L 187.839091 90.8432 
" clip-path="url(#p0ba7bdd5b5)" style="fill: none; stroke: #000000; stroke-width: 2; stroke-linecap: square"/>
   </g>
   <g id="line2d_93">
    <path d="M 193.928182 99.2688 
L 193.928182 90.8432 
" clip-path="url(#p0ba7bdd5b5)" style="fill: none; stroke: #000000; stroke-width: 2; stroke-linecap: square"/>
   </g>
   <g id="line2d_94">
    <path d="M 193.928182 95.056 
L 200.017273 95.056 
" clip-path="url(#p0ba7bdd5b5)" style="fill: none; stroke: #d99999; stroke-width: 3; stroke-linecap: square"/>
   </g>
   <g id="line2d_95">
    <path d="M 193.928182 99.2688 
L 193.928182 90.8432 
" clip-path="url(#p0ba7bdd5b5)" style="fill: none; stroke: #000000; stroke-width: 2; stroke-linecap: square"/>
   </g>
   <g id="line2d_96">
    <path d="M 200.017273 99.2688 
L 200.017273 90.8432 
" clip-path="url(#p0ba7bdd5b5)" style="fill: none; stroke: #000000; stroke-width: 2; stroke-linecap: square"/>
   </g>
   <g id="line2d_97">
    <path d="M 200.017273 95.056 
L 206.106364 95.056 
" clip-path="url(#p0ba7bdd5b5)" style="fill: none; stroke: #d99999; stroke-width: 3; stroke-linecap: square"/>
   </g>
   <g id="line2d_98">
    <path d="M 200.017273 99.2688 
L 200.017273 90.8432 
" clip-path="url(#p0ba7bdd5b5)" style="fill: none; stroke: #000000; stroke-width: 2; stroke-linecap: square"/>
   </g>
   <g id="line2d_99">
    <path d="M 206.106364 99.2688 
L 206.106364 90.8432 
" clip-path="url(#p0ba7bdd5b5)" style="fill: none; stroke: #000000; stroke-width: 2; stroke-linecap: square"/>
   </g>
   <g id="line2d_100">
    <path d="M 206.106364 95.056 
L 212.195455 95.056 
" clip-path="url(#p0ba7bdd5b5)" style="fill: none; stroke: #d99999; stroke-width: 3; stroke-linecap: square"/>
   </g>
   <g id="line2d_101">
    <path d="M 206.106364 99.2688 
L 206.106364 90.8432 
" clip-path="url(#p0ba7bdd5b5)" style="fill: none; stroke: #000000; stroke-width: 2; stroke-linecap: square"/>
   </g>
   <g id="line2d_102">
    <path d="M 212.195455 99.2688 
L 212.195455 90.8432 
" clip-path="url(#p0ba7bdd5b5)" style="fill: none; stroke: #000000; stroke-width: 2; stroke-linecap: square"/>
   </g>
   <g id="line2d_103">
    <path d="M 212.195455 95.056 
L 218.284545 95.056 
" clip-path="url(#p0ba7bdd5b5)" style="fill: none; stroke: #d99999; stroke-width: 3; stroke-linecap: square"/>
   </g>
   <g id="line2d_104">
    <path d="M 212.195455 99.2688 
L 212.195455 90.8432 
" clip-path="url(#p0ba7bdd5b5)" style="fill: none; stroke: #000000; stroke-width: 2; stroke-linecap: square"/>
   </g>
   <g id="line2d_105">
    <path d="M 218.284545 99.2688 
L 218.284545 90.8432 
" clip-path="url(#p0ba7bdd5b5)" style="fill: none; stroke: #000000; stroke-width: 2; stroke-linecap: square"/>
   </g>
   <g id="line2d_106">
    <path d="M 218.284545 95.056 
L 224.373636 95.056 
" clip-path="url(#p0ba7bdd5b5)" style="fill: none; stroke: #d99999; stroke-width: 3; stroke-linecap: square"/>
   </g>
   <g id="line2d_107">
    <path d="M 218.284545 99.2688 
L 218.284545 90.8432 
" clip-path="url(#p0ba7bdd5b5)" style="fill: none; stroke: #000000; stroke-width: 2; stroke-linecap: square"/>
   </g>
   <g id="line2d_108">
    <path d="M 224.373636 99.2688 
L 224.373636 90.8432 
" clip-path="url(#p0ba7bdd5b5)" style="fill: none; stroke: #000000; stroke-width: 2; stroke-linecap: square"/>
   </g>
   <g id="line2d_109">
    <path d="M 224.373636 95.056 
L 230.462727 95.056 
" clip-path="url(#p0ba7bdd5b5)" style="fill: none; stroke: #d99999; stroke-width: 3; stroke-linecap: square"/>
   </g>
   <g id="line2d_110">
    <path d="M 224.373636 99.2688 
L 224.373636 90.8432 
" clip-path="url(#p0ba7bdd5b5)" style="fill: none; stroke: #000000; stroke-width: 2; stroke-linecap: square"/>
   </g>
   <g id="line2d_111">
    <path d="M 230.462727 99.2688 
L 230.462727 90.8432 
" clip-path="url(#p0ba7bdd5b5)" style="fill: none; stroke: #000000; stroke-width: 2; stroke-linecap: square"/>
   </g>
   <g id="line2d_112">
    <path d="M 230.462727 95.056 
L 236.551818 95.056 
" clip-path="url(#p0ba7bdd5b5)" style="fill: none; stroke: #d99999; stroke-width: 3; stroke-linecap: square"/>
   </g>
   <g id="line2d_113">
    <path d="M 230.462727 99.2688 
L 230.462727 90.8432 
" clip-path="url(#p0ba7bdd5b5)" style="fill: none; stroke: #000000; stroke-width: 2; stroke-linecap: square"/>
   </g>
   <g id="line2d_114">
    <path d="M 236.551818 99.2688 
L 236.551818 90.8432 
" clip-path="url(#p0ba7bdd5b5)" style="fill: none; stroke: #000000; stroke-width: 2; stroke-linecap: square"/>
   </g>
   <g id="line2d_115">
    <path d="M 236.551818 95.056 
L 242.640909 95.056 
" clip-path="url(#p0ba7bdd5b5)" style="fill: none; stroke: #d99999; stroke-width: 3; stroke-linecap: square"/>
   </g>
   <g id="line2d_116">
    <path d="M 236.551818 99.2688 
L 236.551818 90.8432 
" clip-path="url(#p0ba7bdd5b5)" style="fill: none; stroke: #000000; stroke-width: 2; stroke-linecap: square"/>
   </g>
   <g id="line2d_117">
    <path d="M 242.640909 99.2688 
L 242.640909 90.8432 
" clip-path="url(#p0ba7bdd5b5)" style="fill: none; stroke: #000000; stroke-width: 2; stroke-linecap: square"/>
   </g>
   <g id="line2d_118">
    <path d="M 242.640909 95.056 
L 248.73 95.056 
" clip-path="url(#p0ba7bdd5b5)" style="fill: none; stroke: #d99999; stroke-width: 3; stroke-linecap: square"/>
   </g>
   <g id="line2d_119">
    <path d="M 242.640909 99.2688 
L 242.640909 90.8432 
" clip-path="url(#p0ba7bdd5b5)" style="fill: none; stroke: #000000; stroke-width: 2; stroke-linecap: square"/>
   </g>
   <g id="line2d_120">
    <path d="M 248.73 99.2688 
L 248.73 90.8432 
" clip-path="url(#p0ba7bdd5b5)" style="fill: none; stroke: #000000; stroke-width: 2; stroke-linecap: square"/>
   </g>
   <g id="line2d_121">
    <path d="M 248.73 95.056 
L 254.819091 95.056 
" clip-path="url(#p0ba7bdd5b5)" style="fill: none; stroke: #d99999; stroke-width: 3; stroke-linecap: square"/>
   </g>
   <g id="line2d_122">
    <path d="M 248.73 99.2688 
L 248.73 90.8432 
" clip-path="url(#p0ba7bdd5b5)" style="fill: none; stroke: #000000; stroke-width: 2; stroke-linecap: square"/>
   </g>
   <g id="line2d_123">
    <path d="M 254.819091 99.2688 
L 254.819091 90.8432 
" clip-path="url(#p0ba7bdd5b5)" style="fill: none; stroke: #000000; stroke-width: 2; stroke-linecap: square"/>
   </g>
   <g id="line2d_124">
    <path d="M 254.819091 95.056 
L 260.908182 95.056 
" clip-path="url(#p0ba7bdd5b5)" style="fill: none; stroke: #d99999; stroke-width: 3; stroke-linecap: square"/>
   </g>
   <g id="line2d_125">
    <path d="M 254.819091 99.2688 
L 254.819091 90.8432 
" clip-path="url(#p0ba7bdd5b5)" style="fill: none; stroke: #000000; stroke-width: 2; stroke-linecap: square"/>
   </g>
   <g id="line2d_126">
    <path d="M 260.908182 99.2688 
L 260.908182 90.8432 
" clip-path="url(#p0ba7bdd5b5)" style="fill: none; stroke: #000000; stroke-width: 2; stroke-linecap: square"/>
   </g>
   <g id="line2d_127">
    <path d="M 260.908182 95.056 
L 266.997273 95.056 
" clip-path="url(#p0ba7bdd5b5)" style="fill: none; stroke: #d99999; stroke-width: 3; stroke-linecap: square"/>
   </g>
   <g id="line2d_128">
    <path d="M 260.908182 99.2688 
L 260.908182 90.8432 
" clip-path="url(#p0ba7bdd5b5)" style="fill: none; stroke: #000000; stroke-width: 2; stroke-linecap: square"/>
   </g>
   <g id="line2d_129">
    <path d="M 266.997273 99.2688 
L 266.997273 90.8432 
" clip-path="url(#p0ba7bdd5b5)" style="fill: none; stroke: #000000; stroke-width: 2; stroke-linecap: square"/>
   </g>
   <g id="line2d_130">
    <path d="M 266.997273 95.056 
L 273.086364 95.056 
" clip-path="url(#p0ba7bdd5b5)" style="fill: none; stroke: #d99999; stroke-width: 3; stroke-linecap: square"/>
   </g>
   <g id="line2d_131">
    <path d="M 266.997273 99.2688 
L 266.997273 90.8432 
" clip-path="url(#p0ba7bdd5b5)" style="fill: none; stroke: #000000; stroke-width: 2; stroke-linecap: square"/>
   </g>
   <g id="line2d_132">
    <path d="M 273.086364 99.2688 
L 273.086364 90.8432 
" clip-path="url(#p0ba7bdd5b5)" style="fill: none; stroke: #000000; stroke-width: 2; stroke-linecap: square"/>
   </g>
   <g id="line2d_133">
    <path d="M 273.086364 95.056 
L 279.175455 95.056 
" clip-path="url(#p0ba7bdd5b5)" style="fill: none; stroke: #d99999; stroke-width: 3; stroke-linecap: square"/>
   </g>
   <g id="line2d_134">
    <path d="M 273.086364 99.2688 
L 273.086364 90.8432 
" clip-path="url(#p0ba7bdd5b5)" style="fill: none; stroke: #000000; stroke-width: 2; stroke-linecap: square"/>
   </g>
   <g id="line2d_135">
    <path d="M 279.175455 99.2688 
L 279.175455 90.8432 
" clip-path="url(#p0ba7bdd5b5)" style="fill: none; stroke: #000000; stroke-width: 2; stroke-linecap: square"/>
   </g>
   <g id="line2d_136">
    <path d="M 279.175455 95.056 
L 285.264545 95.056 
" clip-path="url(#p0ba7bdd5b5)" style="fill: none; stroke: #d99999; stroke-width: 3; stroke-linecap: square"/>
   </g>
   <g id="line2d_137">
    <path d="M 279.175455 99.2688 
L 279.175455 90.8432 
" clip-path="url(#p0ba7bdd5b5)" style="fill: none; stroke: #000000; stroke-width: 2; stroke-linecap: square"/>
   </g>
   <g id="line2d_138">
    <path d="M 285.264545 99.2688 
L 285.264545 90.8432 
" clip-path="url(#p0ba7bdd5b5)" style="fill: none; stroke: #000000; stroke-width: 2; stroke-linecap: square"/>
   </g>
   <g id="line2d_139">
    <path d="M 285.264545 95.056 
L 291.353636 95.056 
" clip-path="url(#p0ba7bdd5b5)" style="fill: none; stroke: #d99999; stroke-width: 3; stroke-linecap: square"/>
   </g>
   <g id="line2d_140">
    <path d="M 285.264545 99.2688 
L 285.264545 90.8432 
" clip-path="url(#p0ba7bdd5b5)" style="fill: none; stroke: #000000; stroke-width: 2; stroke-linecap: square"/>
   </g>
   <g id="line2d_141">
    <path d="M 291.353636 99.2688 
L 291.353636 90.8432 
" clip-path="url(#p0ba7bdd5b5)" style="fill: none; stroke: #000000; stroke-width: 2; stroke-linecap: square"/>
   </g>
   <g id="line2d_142">
    <path d="M 291.353636 95.056 
L 297.442727 95.056 
" clip-path="url(#p0ba7bdd5b5)" style="fill: none; stroke: #d99999; stroke-width: 3; stroke-linecap: square"/>
   </g>
   <g id="line2d_143">
    <path d="M 291.353636 99.2688 
L 291.353636 90.8432 
" clip-path="url(#p0ba7bdd5b5)" style="fill: none; stroke: #000000; stroke-width: 2; stroke-linecap: square"/>
   </g>
   <g id="line2d_144">
    <path d="M 297.442727 99.2688 
L 297.442727 90.8432 
" clip-path="url(#p0ba7bdd5b5)" style="fill: none; stroke: #000000; stroke-width: 2; stroke-linecap: square"/>
   </g>
   <g id="line2d_145">
    <path d="M 297.442727 95.056 
L 303.531818 95.056 
" clip-path="url(#p0ba7bdd5b5)" style="fill: none; stroke: #d99999; stroke-width: 3; stroke-linecap: square"/>
   </g>
   <g id="line2d_146">
    <path d="M 297.442727 99.2688 
L 297.442727 90.8432 
" clip-path="url(#p0ba7bdd5b5)" style="fill: none; stroke: #000000; stroke-width: 2; stroke-linecap: square"/>
   </g>
   <g id="line2d_147">
    <path d="M 303.531818 99.2688 
L 303.531818 90.8432 
" clip-path="url(#p0ba7bdd5b5)" style="fill: none; stroke: #000000; stroke-width: 2; stroke-linecap: square"/>
   </g>
   <g id="line2d_148">
    <path d="M 303.531818 95.056 
L 309.620909 95.056 
" clip-path="url(#p0ba7bdd5b5)" style="fill: none; stroke: #d99999; stroke-width: 3; stroke-linecap: square"/>
   </g>
   <g id="line2d_149">
    <path d="M 303.531818 99.2688 
L 303.531818 90.8432 
" clip-path="url(#p0ba7bdd5b5)" style="fill: none; stroke: #000000; stroke-width: 2; stroke-linecap: square"/>
   </g>
   <g id="line2d_150">
    <path d="M 309.620909 99.2688 
L 309.620909 90.8432 
" clip-path="url(#p0ba7bdd5b5)" style="fill: none; stroke: #000000; stroke-width: 2; stroke-linecap: square"/>
   </g>
   <g id="line2d_151">
    <path d="M 309.620909 95.056 
L 315.71 95.056 
" clip-path="url(#p0ba7bdd5b5)" style="fill: none; stroke: #d99999; stroke-width: 3; stroke-linecap: square"/>
   </g>
   <g id="line2d_152">
    <path d="M 309.620909 99.2688 
L 309.620909 90.8432 
" clip-path="url(#p0ba7bdd5b5)" style="fill: none; stroke: #000000; stroke-width: 2; stroke-linecap: square"/>
   </g>
   <g id="line2d_153">
    <path d="M 315.71 99.2688 
L 315.71 90.8432 
" clip-path="url(#p0ba7bdd5b5)" style="fill: none; stroke: #000000; stroke-width: 2; stroke-linecap: square"/>
   </g>
   <g id="line2d_154">
    <path d="M 315.71 95.056 
L 321.799091 95.056 
" clip-path="url(#p0ba7bdd5b5)" style="fill: none; stroke: #d99999; stroke-width: 3; stroke-linecap: square"/>
   </g>
   <g id="line2d_155">
    <path d="M 315.71 99.2688 
L 315.71 90.8432 
" clip-path="url(#p0ba7bdd5b5)" style="fill: none; stroke: #000000; stroke-width: 2; stroke-linecap: square"/>
   </g>
   <g id="line2d_156">
    <path d="M 321.799091 99.2688 
L 321.799091 90.8432 
" clip-path="url(#p0ba7bdd5b5)" style="fill: none; stroke: #000000; stroke-width: 2; stroke-linecap: square"/>
   </g>
   <g id="line2d_157">
    <path d="M 321.799091 95.056 
L 327.888182 95.056 
" clip-path="url(#p0ba7bdd5b5)" style="fill: none; stroke: #d99999; stroke-width: 3; stroke-linecap: square"/>
   </g>
   <g id="line2d_158">
    <path d="M 321.799091 99.2688 
L 321.799091 90.8432 
" clip-path="url(#p0ba7bdd5b5)" style="fill: none; stroke: #000000; stroke-width: 2; stroke-linecap: square"/>
   </g>
   <g id="line2d_159">
    <path d="M 327.888182 99.2688 
L 327.888182 90.8432 
" clip-path="url(#p0ba7bdd5b5)" style="fill: none; stroke: #000000; stroke-width: 2; stroke-linecap: square"/>
   </g>
   <g id="line2d_160">
    <path d="M 327.888182 95.056 
L 333.977273 95.056 
" clip-path="url(#p0ba7bdd5b5)" style="fill: none; stroke: #d99999; stroke-width: 3; stroke-linecap: square"/>
   </g>
   <g id="line2d_161">
    <path d="M 327.888182 99.2688 
L 327.888182 90.8432 
" clip-path="url(#p0ba7bdd5b5)" style="fill: none; stroke: #000000; stroke-width: 2; stroke-linecap: square"/>
   </g>
   <g id="line2d_162">
    <path d="M 333.977273 99.2688 
L 333.977273 90.8432 
" clip-path="url(#p0ba7bdd5b5)" style="fill: none; stroke: #000000; stroke-width: 2; stroke-linecap: square"/>
   </g>
   <g id="line2d_163">
    <path d="M 29.522727 103.4816 
L 29.522727 86.6304 
" clip-path="url(#p0ba7bdd5b5)" style="fill: none; stroke: #ff0000; stroke-width: 3; stroke-linecap: square"/>
   </g>
   <g id="line2d_164">
    <path d="M 333.977273 103.4816 
L 333.977273 86.6304 
" clip-path="url(#p0ba7bdd5b5)" style="fill: none; stroke: #00ff00; stroke-width: 3; stroke-linecap: square"/>
   </g>
   <g id="patch_3">
    <path d="M 14.3 116.12 
L 14.3 10.8 
" style="fill: none; stroke: #000000; stroke-width: 0.8; stroke-linejoin: miter; stroke-linecap: square"/>
   </g>
   <g id="patch_4">
    <path d="M 349.2 116.12 
L 349.2 10.8 
" style="fill: none; stroke: #000000; stroke-width: 0.8; stroke-linejoin: miter; stroke-linecap: square"/>
   </g>
   <g id="patch_5">
    <path d="M 14.3 116.12 
L 349.2 116.12 
" style="fill: none; stroke: #000000; stroke-width: 0.8; stroke-linejoin: miter; stroke-linecap: square"/>
   </g>
   <g id="patch_6">
    <path d="M 14.3 10.8 
L 349.2 10.8 
" style="fill: none; stroke: #000000; stroke-width: 0.8; stroke-linejoin: miter; stroke-linecap: square"/>
   </g>
  </g>
 </g>
 <defs>
  <clipPath id="p0ba7bdd5b5">
   <rect x="14.3" y="10.8" width="334.9" height="105.32"/>
  </clipPath>
 </defs>
</svg>
